<svg version="1.2" baseProfile="tiny-ps" xmlns="http://www.w3.org/2000/svg" viewBox="0 0 2500 1600" width="1920" height="1229">
	<title>vecteezy_flat_background_dp1021-ai</title>
	<defs>
		<linearGradient id="grd1" gradientUnits="userSpaceOnUse"  x1="-2" y1="1152.715" x2="-2" y2="177.571">
			<stop offset="0.006" stop-color="#fffefb"  />
			<stop offset="0.376" stop-color="#ffe5d4"  />
			<stop offset="1" stop-color="#ffc2c3"  />
		</linearGradient>
	</defs>
	<style>
		tspan { white-space:pre }
		.shp0 { fill: url(#grd1) } 
		.shp1 { opacity: 0.02;fill: #a79fcb } 
		.shp2 { opacity: 0.141;fill: #a79fcb } 
		.shp3 { opacity: 0.631;fill: #a79fcb } 
		.shp4 { opacity: 0.812;fill: #a79fcb } 
		.shp5 { opacity: 0.4;fill: #a79fcb } 
	</style>
	<g id="BACKGROUND">
		<g id="&lt;Group&gt;">
			<path id="&lt;Path&gt;" class="shp0" d="M2500 0L2500 1600L0 1600L0 0L2500 0Z" />
			<path id="&lt;Path&gt;" class="shp1" d="M0 0L2500 0L2500 433.49C2317.78 483.7 2172.31 505.94 2063.61 500.23C1900.55 491.66 1646.44 414.81 1420.62 448.1C1194.81 481.38 1112.15 456.43 819.32 390.36C624.09 346.31 350.99 320.67 0 313.44L0 0Z" />
			<path id="&lt;Path&gt;" class="shp2" d="M2500 286.18L2500 1186.68L0 1221.39L0 320.92C188.42 259.75 337.05 226.05 445.91 219.8C609.19 210.44 748.79 367.61 1075.63 307.43C1305.25 265.16 1394.62 393.21 1688.78 368.57C2117.95 332.62 2388.36 365.4 2500 466.92L2500 286.18Z" />
			<path id="&lt;Path&gt;" class="shp3" d="M0 525.1C189.01 651.14 461.07 670.86 816.17 584.28C1103.45 514.23 1194.74 469.96 1420.86 524.94C1646.99 579.91 1710.21 687.62 1870.32 654.81C2151.18 597.27 2361.08 614.95 2500 707.85L2500 1066.58L0 1066.58L0 523.43L0 525.1Z" />
			<path id="&lt;Path&gt;" class="shp4" d="M2500 758.11L2500 1301.25L0 1301.25L0 758.11C68 698.14 156.43 665.79 265.28 661.06C428.57 653.97 853.86 814.58 1079.99 759.61C1306.12 704.64 1388.9 721.66 1682.15 759.61C1877.65 784.92 2150.26 839.29 2500 922.75L2500 758.11Z" />
			<path id="&lt;Path&gt;" class="shp5" d="M0 843.64C350.31 869.95 623.21 870.45 818.71 845.15C1111.96 807.19 1194.74 790.17 1420.86 845.15C1646.99 900.12 2072.29 739.51 2235.57 746.6C2344.43 751.32 2432.57 783.67 2500 843.64L2500 1386.79L0 1386.79L0 843.64Z" />
		</g>
	</g>
</svg>