<svg version="1.2" baseProfile="tiny-ps" xmlns="http://www.w3.org/2000/svg" viewBox="0 0 2500 1600" width="1920" height="1229">
	<title>vecteezy_flat_background_dp1021-ai</title>
	<style>
		tspan { white-space:pre }
		.shp0 { fill: #373760 } 
	</style>
	<g id="MID-GROUND">
		<g id="&lt;Group&gt;">
			<g id="&lt;Group&gt;">
				<path id="&lt;Path&gt;" class="shp0" d="M1664.81 591.88L1694.03 604.57L1668.66 610.42C1665.22 611.22 1661.61 610.26 1659.02 607.86L1651.69 601.07L1647.62 607.97L1641.39 605.27C1635.86 602.05 1633.22 595.5 1634.95 589.34L1634.95 589.34L1644.75 590.74L1645.51 577.04C1645.74 573.01 1647.49 569.21 1650.42 566.43L1659.42 557.85L1661.61 584.79L1665.02 583.01C1667.31 581.81 1670.06 581.89 1672.27 583.21L1678.62 587.04C1671.49 588.45 1666.88 590.07 1664.81 591.88Z" />
				<path id="&lt;Path&gt;" class="shp0" d="M1473.04 725.33L1491.96 733.55L1475.53 737.34C1473.31 737.86 1470.97 737.24 1469.29 735.68L1464.54 731.29L1461.91 735.75L1457.87 734.01C1454.3 731.92 1452.58 727.68 1453.71 723.69L1460.05 724.6L1460.55 715.73C1460.69 713.12 1461.83 710.66 1463.72 708.85L1469.55 703.3L1470.97 720.75L1473.18 719.59C1474.66 718.81 1476.44 718.86 1477.87 719.72L1481.98 722.2C1477.36 723.12 1474.38 724.16 1473.04 725.33Z" />
				<path id="&lt;Path&gt;" class="shp0" d="M1412.29 693.37L1434.76 703.13L1415.25 707.64C1412.61 708.25 1409.83 707.51 1407.84 705.67L1402.2 700.44L1399.06 705.75L1394.27 703.68C1390.02 701.2 1387.99 696.16 1389.32 691.42L1396.86 692.5L1397.45 681.96C1397.62 678.86 1398.97 675.94 1401.22 673.8L1408.14 667.21L1409.83 687.93L1412.45 686.55C1414.21 685.63 1416.32 685.69 1418.03 686.71L1422.91 689.65C1417.42 690.74 1413.88 691.98 1412.29 693.37Z" />
				<path id="&lt;Path&gt;" class="shp0" d="M1344.8 613.95L1359.86 620.49L1346.78 623.51C1345.01 623.92 1343.15 623.42 1341.81 622.19L1338.03 618.68L1335.93 622.24L1332.72 620.85C1329.87 619.19 1328.5 615.81 1329.4 612.64L1334.45 613.36L1334.85 606.3C1334.96 604.22 1335.87 602.26 1337.37 600.82L1342.02 596.4L1343.15 610.29L1344.9 609.37C1346.08 608.75 1347.5 608.8 1348.64 609.48L1351.91 611.45C1348.24 612.18 1345.86 613.01 1344.8 613.95Z" />
				<path id="&lt;Path&gt;" class="shp0" d="M1210.23 570.93L1219.58 574.99L1211.46 576.86C1210.36 577.12 1209.21 576.81 1208.38 576.04L1206.03 573.87L1204.73 576.08L1202.74 575.21C1200.97 574.18 1200.12 572.09 1200.68 570.12L1203.81 570.57L1204.06 566.19C1204.13 564.89 1204.69 563.68 1205.63 562.79L1208.5 560.05L1209.21 568.66L1210.3 568.09C1211.03 567.71 1211.91 567.73 1212.62 568.16L1214.65 569.38C1212.36 569.84 1210.89 570.35 1210.23 570.93Z" />
				<path id="&lt;Path&gt;" class="shp0" d="M1206.71 775.17L1220.61 781.2L1208.54 783.99C1206.9 784.37 1205.18 783.91 1203.95 782.77L1200.46 779.54L1198.53 782.82L1195.56 781.54C1192.93 780.01 1191.68 776.89 1192.5 773.96L1197.16 774.63L1197.53 768.11C1197.63 766.19 1198.47 764.39 1199.86 763.06L1204.14 758.98L1205.18 771.8L1206.8 770.95C1207.89 770.38 1209.2 770.42 1210.25 771.05L1213.27 772.87C1209.88 773.54 1207.69 774.31 1206.71 775.17Z" />
				<path id="&lt;Path&gt;" class="shp0" d="M1200.71 868.19L1218.14 875.76L1203.01 879.25C1200.95 879.72 1198.8 879.15 1197.26 877.72L1192.88 873.67L1190.45 877.79L1186.74 876.18C1183.44 874.25 1181.87 870.35 1182.9 866.68L1188.75 867.51L1189.2 859.34C1189.34 856.94 1190.38 854.67 1192.13 853.01L1197.5 847.9L1198.8 863.97L1200.83 862.9C1202.2 862.18 1203.84 862.23 1205.16 863.02L1208.95 865.31C1204.69 866.15 1201.95 867.11 1200.71 868.19Z" />
				<path id="&lt;Path&gt;" class="shp0" d="M1084.41 785.2L1103.05 793.29L1086.86 797.03C1084.67 797.54 1082.36 796.93 1080.71 795.4L1076.03 791.06L1073.43 795.47L1069.46 793.74C1065.93 791.69 1064.24 787.51 1065.35 783.58L1065.35 783.58L1071.61 784.47L1072.09 775.73C1072.23 773.16 1073.35 770.74 1075.22 768.96L1080.97 763.49L1082.36 780.68L1084.54 779.54C1086 778.77 1087.75 778.82 1089.17 779.67L1093.22 782.11C1088.66 783.01 1085.73 784.04 1084.41 785.2Z" />
				<path id="&lt;Path&gt;" class="shp0" d="M1016.88 848.6L1042.54 859.74L1020.26 864.88C1017.24 865.58 1014.07 864.74 1011.8 862.63L1005.36 856.67L1001.78 862.73L996.31 860.36C991.46 857.53 989.13 851.77 990.66 846.37L999.27 847.59L999.93 835.57C1000.13 832.02 1001.67 828.69 1004.24 826.24L1012.15 818.72L1014.07 842.38L1017.06 840.81C1019.07 839.75 1021.49 839.82 1023.43 840.99L1029.01 844.35C1022.74 845.59 1018.7 847 1016.88 848.6Z" />
				<path id="&lt;Path&gt;" class="shp0" d="M965.67 819.79L981.63 826.72L967.77 829.92C965.89 830.35 963.92 829.83 962.51 828.52L958.5 824.81L956.28 828.58L952.88 827.1C949.86 825.34 948.42 821.76 949.36 818.4L954.72 819.17L955.13 811.69C955.25 809.48 956.21 807.41 957.81 805.89L962.73 801.21L963.92 815.92L965.78 814.94C967.03 814.29 968.53 814.33 969.75 815.06L973.21 817.15C969.32 817.92 966.8 818.8 965.67 819.79Z" />
				<path id="&lt;Path&gt;" class="shp0" d="M918.63 783.85L934.58 790.78L920.73 793.98C918.85 794.41 916.88 793.89 915.46 792.58L911.46 788.87L909.23 792.64L905.83 791.17C902.82 789.41 901.37 785.83 902.32 782.47L907.67 783.23L908.09 775.75C908.21 773.55 909.17 771.48 910.77 769.95L915.68 765.27L916.88 779.99L918.74 779.01C919.99 778.35 921.49 778.4 922.7 779.12L926.17 781.21C922.27 781.98 919.76 782.86 918.63 783.85Z" />
				<path id="&lt;Path&gt;" class="shp0" d="M620.26 777.65L631.41 782.5L621.72 784.73C620.41 785.04 619.03 784.67 618.05 783.76L615.24 781.16L613.69 783.8L611.31 782.77C609.2 781.54 608.19 779.04 608.85 776.69L612.6 777.22L612.89 771.99C612.97 770.45 613.64 769 614.76 767.94L618.2 764.66L619.03 774.95L620.33 774.27C621.21 773.81 622.26 773.84 623.1 774.35L625.53 775.81C622.8 776.35 621.05 776.96 620.26 777.65Z" />
				<path id="&lt;Path&gt;" class="shp0" d="M592.41 929.54L603.57 934.38L593.88 936.62C592.57 936.92 591.19 936.56 590.2 935.64L587.4 933.05L585.85 935.68L583.47 934.65C581.36 933.42 580.35 930.92 581.01 928.57L584.75 929.1L585.04 923.87C585.13 922.33 585.8 920.88 586.92 919.82L590.35 916.55L591.19 926.83L592.49 926.15C593.36 925.69 594.41 925.72 595.26 926.23L597.68 927.69C594.96 928.23 593.2 928.85 592.41 929.54Z" />
				<path id="&lt;Path&gt;" class="shp0" d="M729.87 941.26L737.77 944.69L730.91 946.27C729.98 946.49 729.01 946.23 728.31 945.58L726.33 943.75L725.23 945.61L723.54 944.88C722.05 944.01 721.34 942.24 721.81 940.58L724.45 940.96L724.66 937.26C724.72 936.17 725.19 935.14 725.99 934.39L728.42 932.07L729.01 939.35L729.93 938.87C730.55 938.54 731.29 938.56 731.89 938.92L733.6 939.96C731.68 940.34 730.43 940.77 729.87 941.26Z" />
				<path id="&lt;Path&gt;" class="shp0" d="M685.86 972.19L693.76 975.61L686.9 977.2C685.97 977.41 685 977.15 684.3 976.5L682.32 974.67L681.22 976.53L679.53 975.8C678.04 974.93 677.33 973.16 677.79 971.5L680.44 971.88L680.65 968.18C680.71 967.09 681.18 966.06 681.97 965.31L684.41 963L685 970.27L685.92 969.79C686.54 969.47 687.28 969.49 687.88 969.85L689.59 970.88C687.66 971.26 686.42 971.7 685.86 972.19Z" />
				<path id="&lt;Path&gt;" class="shp0" d="M881.35 772.57L892.52 777.42L882.82 779.66C881.51 779.97 880.13 779.6 879.14 778.68L876.33 776.09L874.78 778.72L872.4 777.69C870.29 776.46 869.27 773.96 869.94 771.6L873.68 772.14L873.98 766.9C874.06 765.36 874.73 763.91 875.85 762.85L879.29 759.57L880.13 769.87L881.43 769.18C882.31 768.73 883.36 768.76 884.2 769.26L886.63 770.73C883.9 771.27 882.14 771.88 881.35 772.57Z" />
				<path id="&lt;Path&gt;" class="shp0" d="M854.3 877.38L868.19 883.18L856.15 885.8C854.52 886.15 852.81 885.71 851.58 884.62L848.09 881.53L846.16 884.66L843.2 883.42C840.58 881.95 839.31 878.98 840.13 876.19L844.78 876.84L845.12 870.63C845.22 868.8 846.05 867.08 847.44 865.82L851.7 861.94L852.77 874.16L854.39 873.36C855.47 872.82 856.78 872.86 857.83 873.46L860.85 875.21C857.47 875.84 855.28 876.56 854.3 877.38Z" />
				<path id="&lt;Path&gt;" class="shp0" d="M751.49 833.62L770.5 841.55L754.03 845.14C751.79 845.63 749.45 845.02 747.76 843.53L742.98 839.3L740.35 843.58L736.3 841.89C732.7 839.88 730.97 835.81 732.09 831.99L738.46 832.88L738.93 824.38C739.07 821.87 740.2 819.52 742.09 817.8L747.93 812.49L749.4 829.22L751.61 828.12C753.09 827.38 754.88 827.43 756.32 828.26L760.45 830.64C755.82 831.51 752.83 832.5 751.49 833.62Z" />
				<path id="&lt;Path&gt;" class="shp0" d="M680.2 836.88L694.19 842.72L682.07 845.36C680.42 845.72 678.7 845.27 677.46 844.17L673.94 841.06L672 844.21L669.02 842.97C666.37 841.49 665.1 838.49 665.92 835.68L670.61 836.33L670.95 830.08C671.05 828.23 671.89 826.5 673.28 825.23L677.58 821.33L678.66 833.64L680.29 832.83C681.38 832.28 682.69 832.32 683.76 832.93L686.8 834.69C683.39 835.32 681.19 836.06 680.2 836.88Z" />
				<path id="&lt;Path&gt;" class="shp0" d="M997.54 637.7L1011.53 643.54L999.41 646.18C997.76 646.53 996.04 646.09 994.8 644.99L991.28 641.88L989.34 645.03L986.36 643.78C983.71 642.3 982.44 639.31 983.26 636.5L987.95 637.15L988.29 630.89C988.4 629.05 989.23 627.32 990.63 626.05L994.92 622.14L996 634.46L997.63 633.64C998.72 633.1 1000.04 633.14 1001.1 633.75L1004.14 635.51C1000.73 636.14 998.53 636.87 997.54 637.7Z" />
				<path id="&lt;Path&gt;" class="shp0" d="M1253.48 873.12L1263.61 877.52L1254.81 879.55C1253.62 879.82 1252.37 879.49 1251.47 878.66L1248.92 876.3L1247.51 878.7L1245.35 877.76C1243.44 876.64 1242.52 874.37 1243.12 872.24L1246.52 872.72L1246.78 867.97C1246.86 866.57 1247.47 865.26 1248.48 864.29L1251.61 861.32L1252.37 870.66L1253.55 870.04C1254.34 869.62 1255.29 869.65 1256.06 870.11L1258.26 871.44C1255.79 871.93 1254.19 872.49 1253.48 873.12Z" />
				<path id="&lt;Path&gt;" class="shp0" d="M1361.09 764.3L1371.22 768.7L1362.42 770.73C1361.23 771 1359.98 770.67 1359.08 769.84L1356.53 767.49L1355.12 769.88L1352.96 768.94C1351.05 767.82 1350.13 765.55 1350.73 763.42L1354.13 763.9L1354.39 759.15C1354.47 757.75 1355.08 756.44 1356.09 755.47L1359.22 752.5L1359.98 761.84L1361.16 761.22C1361.95 760.81 1362.9 760.83 1363.67 761.29L1365.87 762.62C1363.4 763.11 1361.8 763.67 1361.09 764.3Z" />
				<path id="&lt;Path&gt;" class="shp0" d="M1436.59 793.19L1443.93 796.37L1437.56 797.84C1436.69 798.04 1435.79 797.8 1435.13 797.2L1433.29 795.49L1432.27 797.23L1430.71 796.55C1429.32 795.74 1428.65 794.09 1429.09 792.55L1431.55 792.9L1431.74 789.46C1431.8 788.45 1432.24 787.49 1432.97 786.79L1435.23 784.64L1435.78 791.41L1436.64 790.96C1437.22 790.66 1437.91 790.68 1438.46 791.01L1440.06 791.97C1438.26 792.33 1437.11 792.73 1436.59 793.19Z" />
				<path id="&lt;Path&gt;" class="shp0" d="M1603.5 663.36L1610.84 666.54L1604.46 668.02C1603.6 668.21 1602.69 667.97 1602.04 667.37L1600.2 665.67L1599.18 667.4L1597.61 666.72C1596.23 665.91 1595.56 664.27 1596 662.72L1598.46 663.07L1598.65 659.63C1598.71 658.62 1599.15 657.67 1599.88 656.97L1602.14 654.81L1602.69 661.58L1603.55 661.13C1604.12 660.83 1604.81 660.85 1605.37 661.18L1606.97 662.14C1605.17 662.5 1604.02 662.9 1603.5 663.36Z" />
				<path id="&lt;Path&gt;" class="shp0" d="M1369.42 855.98L1383.21 861.97L1371.24 864.74C1369.62 865.11 1367.91 864.66 1366.69 863.53L1363.23 860.32L1361.31 863.58L1358.37 862.3C1355.76 860.78 1354.51 857.69 1355.33 854.79L1359.96 855.45L1360.32 848.98C1360.42 847.08 1361.25 845.29 1362.63 843.97L1366.88 839.93L1367.91 852.64L1369.52 851.8C1370.6 851.23 1371.9 851.27 1372.94 851.9L1375.94 853.7C1372.57 854.37 1370.4 855.13 1369.42 855.98Z" />
			</g>
		</g>
	</g>
</svg>