<svg version="1.2" baseProfile="tiny-ps" xmlns="http://www.w3.org/2000/svg" viewBox="0 0 2500 1600" width="1920" height="1229">
	<title>vecteezy_flat_background_dp1021-ai</title>
	<style>
		tspan { white-space:pre }
		.shp0 { fill: #2f2b3d } 
	</style>
	<g id="FORGROUND">
		<g id="&lt;Clip Group&gt;">
			<g id="&lt;Group&gt;">
				<g id="&lt;Group&gt;">
					<path id="&lt;Path&gt;" class="shp0" d="M-0.21 1457.66C73.27 1485.08 155.85 1486.56 230.24 1461.81C287.9 1442.63 340.76 1408.28 400.48 1397.36C430.09 1391.95 460.61 1392.49 489.95 1385.71C562.83 1368.86 618.05 1310.17 682.45 1271.62C698.57 1261.98 716.69 1253.29 735.25 1255.7C752.87 1257.99 767.77 1269.88 784.72 1275.3C816.65 1285.52 850.73 1271.81 881.46 1258.34C927.91 1237.98 974.35 1217.63 1020.79 1197.27C1050.83 1184.1 1082.36 1170.66 1114.98 1173.17C1168.72 1177.3 1214.85 1223.95 1268.55 1219.28C1286.53 1217.72 1303.93 1210.33 1321.96 1211.07C1340.72 1211.85 1357.91 1221.29 1374.54 1230.13C1454.02 1272.35 1549.08 1359.56 1931.25 1295.88C2032.81 1278.96 2192.9 1153.2 2251.52 1145.46C2352.16 1132.18 2434.91 1160.67 2499.79 1230.95L2499.79 1693.1L-0.21 1693.1L-0.21 1457.66Z" />
				</g>
				<g id="&lt;Group&gt;">
					<g id="&lt;Group&gt;">
						<path id="&lt;Path&gt;" class="shp0" d="M1893.71 916.67L1897.74 929.63L1903.11 926.86C1906.77 945.66 1909.12 954.86 1910.16 954.44C1911.73 953.81 1914.87 956.64 1919.57 955.07C1924.27 953.5 1919.57 955.07 1918.78 957.42C1918.26 958.99 1919.05 960.56 1921.14 962.12L1925.05 962.12L1926.62 968.39L1918.78 968.39C1917.22 971 1916.43 973.76 1916.43 976.66C1916.43 981.02 1925.84 977.8 1929.76 977.01C1932.37 976.49 1934.2 976.49 1935.24 977.01L1930.54 993.47L1935.24 993.47L1936.03 1004.44L1944.65 1004.44L1952.48 1004.44C1943.6 1008.1 1938.38 1010.45 1936.81 1011.5C1935.24 1012.54 1934.98 1013.85 1936.03 1015.42L1930.54 1021.69C1926.88 1025.87 1923.75 1029 1921.14 1031.09C1918.52 1033.18 1918.52 1035.01 1921.14 1036.58L1934.46 1030.31L1939.95 1027.17L1951.7 1021.69L1947.78 1031.09C1961.89 1027.43 1968.16 1026.39 1966.59 1027.96C1965.02 1029.52 1963.2 1033.18 1961.11 1038.93C1956.93 1042.58 1952.48 1044.94 1947.78 1045.98C1940.73 1047.55 1940.73 1053.82 1937.59 1055.39C1935.5 1056.43 1932.89 1059.3 1929.76 1064.01L1936.03 1064.01L1947.78 1064.01L1936.03 1072.63L1934.46 1077.33L1930.54 1086.73C1935.24 1084.12 1938.38 1082.55 1939.95 1082.03C1942.3 1081.25 1946.22 1082.03 1947.78 1082.03C1948.83 1082.03 1952.22 1082.55 1957.97 1083.6L1974.43 1077.33L1970.51 1080.46L1973.65 1085.17L1957.97 1093.79L1951.7 1093.79L1940.73 1102.41L1931.32 1106.33L1936.03 1114.16L1943.86 1114.16L1947.78 1118.87L1955.62 1118.87L1952.48 1127.49L1939.95 1132.97L1947.78 1138.46L1954.05 1141.59L1965.02 1138.46L1956.4 1146.3L1968.94 1154.92L1968.94 1164.32L1983.05 1170.59C1977.83 1172.68 1974.43 1173.99 1972.86 1174.51C1971.29 1175.03 1965.55 1177.12 1955.62 1180.78L1947.78 1177.65C1942.04 1180.78 1937.07 1182.61 1932.89 1183.13C1928.71 1183.65 1928.19 1186.01 1931.32 1190.19L1938.38 1193.32L1947.78 1183.13C1949.35 1186.27 1949.35 1189.14 1947.78 1191.75C1946.22 1194.37 1949.09 1195.67 1956.4 1195.67L1961.11 1202.72L1972.08 1195.67L1977.56 1195.67L1987.75 1205.08L1969.73 1212.91L1961.89 1216.05L1968.94 1221.53L1985.4 1221.53L1974.43 1227.02L1966.59 1232.28L1953.27 1232.28L1947.78 1245.05L1957.19 1245.05L1953.27 1258.37L1992.45 1265.42L1969.73 1275.61L1952.48 1270.12L1952.48 1274.83L1933.68 1285.02L1925.05 1290.5L1915.65 1285.02L1903.11 1289.72L1903.11 1327.34L1893.71 1327.34L1884.3 1327.34L1884.3 1289.72L1871.76 1285.02L1862.36 1290.5L1853.74 1285.02L1834.93 1274.83L1834.93 1270.12L1817.68 1275.61L1794.96 1265.42L1834.14 1258.37L1830.22 1245.05L1839.63 1245.05L1834.14 1232.28L1820.82 1232.28L1812.98 1227.02L1802.01 1221.53L1818.47 1221.53L1825.52 1216.05L1817.68 1212.91L1799.66 1205.08L1809.85 1195.67L1815.33 1195.67L1826.31 1202.72L1831.01 1195.67C1838.32 1195.67 1841.2 1194.37 1839.63 1191.75C1838.06 1189.14 1838.06 1186.27 1839.63 1183.13L1849.03 1193.32L1856.09 1190.19C1859.22 1186.01 1858.7 1183.65 1854.52 1183.13C1850.34 1182.61 1845.38 1180.78 1839.63 1177.65L1831.79 1180.78C1821.86 1177.12 1816.12 1175.03 1814.55 1174.51C1812.98 1173.99 1809.59 1172.68 1804.36 1170.59L1818.47 1164.32L1818.47 1154.92L1831.01 1146.3L1822.39 1138.46L1833.36 1141.59L1839.63 1138.46L1847.47 1132.97L1834.93 1127.49L1831.79 1118.87L1839.63 1118.87L1843.55 1114.16L1851.38 1114.16L1856.09 1106.33L1846.68 1102.41L1835.71 1093.79L1829.44 1093.79L1813.77 1085.17L1816.9 1080.46L1812.98 1077.33L1829.44 1083.6C1835.19 1082.55 1838.58 1082.03 1839.63 1082.03C1841.2 1082.03 1845.12 1081.25 1847.47 1082.03C1849.03 1082.55 1852.17 1084.12 1856.87 1086.73L1852.95 1077.33L1851.38 1072.63L1839.63 1064.01L1851.38 1064.01L1857.65 1064.01C1854.52 1059.3 1851.91 1056.43 1849.82 1055.39C1846.68 1053.82 1846.68 1047.55 1839.63 1045.98C1834.93 1044.94 1830.49 1042.58 1826.31 1038.93C1824.22 1033.18 1822.39 1029.52 1820.82 1027.96C1819.25 1026.39 1825.52 1027.43 1839.63 1031.09L1835.71 1021.69L1847.47 1027.17L1852.95 1030.31L1866.28 1036.58C1868.89 1035.01 1868.89 1033.18 1866.28 1031.09C1863.66 1029 1860.53 1025.87 1856.87 1021.69L1851.38 1015.42C1852.43 1013.85 1852.17 1012.54 1850.6 1011.5C1849.03 1010.45 1843.81 1008.1 1834.93 1004.44L1842.76 1004.44L1851.38 1004.44L1852.17 993.47L1856.87 993.47L1852.17 977.01C1853.21 976.49 1855.04 976.49 1857.65 977.01C1861.57 977.8 1870.98 981.02 1870.98 976.66C1870.98 973.76 1870.19 971 1868.63 968.39L1860.79 968.39L1862.36 962.12L1866.28 962.12C1868.37 960.56 1869.15 958.99 1868.63 957.42C1867.84 955.07 1863.14 953.5 1867.84 955.07C1872.55 956.64 1875.68 953.81 1877.25 954.44C1878.29 954.86 1880.64 945.66 1884.3 926.86L1891.26 928.17L1893.71 916.67Z" />
					</g>
					<g id="&lt;Group&gt;">
						<path id="&lt;Path&gt;" class="shp0" d="M1504.14 894.07L1508.18 907.03L1513.55 904.26C1517.21 923.06 1519.56 932.26 1520.6 931.84C1522.17 931.21 1525.3 934.04 1530.01 932.47C1534.71 930.9 1530.01 932.47 1529.22 934.82C1528.7 936.39 1529.48 937.96 1531.57 939.52L1535.49 939.52L1537.06 945.79L1529.22 945.79C1527.65 948.41 1526.87 951.16 1526.87 954.07C1526.87 958.42 1536.28 955.2 1540.19 954.41C1542.81 953.89 1544.64 953.89 1545.68 954.41L1540.98 970.87L1545.68 970.87L1546.46 981.84L1555.09 981.84L1562.92 981.84C1554.04 985.5 1548.82 987.85 1547.25 988.9C1545.68 989.94 1545.42 991.25 1546.46 992.82L1540.98 999.09C1537.32 1003.27 1534.19 1006.4 1531.57 1008.49C1528.96 1010.58 1528.96 1012.41 1531.57 1013.98L1544.9 1007.71L1550.38 1004.57L1562.14 999.09L1558.22 1008.49C1572.33 1004.83 1578.6 1003.79 1577.03 1005.36C1575.46 1006.92 1573.63 1010.58 1571.54 1016.33C1567.36 1019.99 1562.92 1022.34 1558.22 1023.38C1551.17 1024.95 1551.17 1031.22 1548.03 1032.79C1545.94 1033.83 1543.33 1036.7 1540.19 1041.41L1546.46 1041.41L1558.22 1041.41L1546.46 1050.03L1544.9 1054.73L1540.98 1064.13C1545.68 1061.52 1548.82 1059.95 1550.38 1059.43C1552.73 1058.65 1556.65 1059.43 1558.22 1059.43C1559.26 1059.43 1562.66 1059.95 1568.41 1061L1584.87 1054.73L1580.95 1057.86L1584.08 1062.57L1568.41 1071.19L1562.14 1071.19L1551.17 1079.81L1541.76 1083.73L1546.46 1091.56L1554.3 1091.56L1558.22 1096.27L1566.06 1096.27L1562.92 1104.89L1550.38 1110.37L1558.22 1115.86L1564.49 1119L1575.46 1115.86L1566.84 1123.7L1579.38 1132.32L1579.38 1141.72L1593.49 1147.99C1588.26 1150.08 1584.87 1151.39 1583.3 1151.91C1581.73 1152.43 1575.98 1154.52 1566.06 1158.18L1558.22 1155.05C1552.47 1158.18 1547.51 1160.01 1543.33 1160.53C1539.15 1161.05 1538.63 1163.41 1541.76 1167.59L1548.82 1170.72L1558.22 1160.53C1559.79 1163.67 1559.79 1166.54 1558.22 1169.15C1556.65 1171.77 1559.53 1173.07 1566.84 1173.07L1571.54 1180.13L1582.52 1173.07L1588 1173.07L1598.19 1182.48L1580.16 1190.31L1572.33 1193.45L1579.38 1198.93L1595.84 1198.93L1584.87 1204.42L1577.03 1209.68L1563.71 1209.68L1558.22 1222.45L1567.62 1222.45L1563.71 1235.77L1602.89 1242.82L1580.16 1253.01L1562.92 1247.53L1562.92 1252.23L1544.11 1262.42L1535.49 1267.9L1526.09 1262.42L1513.55 1267.12L1513.55 1304.74L1504.14 1304.74L1494.74 1304.74L1494.74 1267.12L1482.2 1262.42L1472.79 1267.9L1464.17 1262.42L1445.36 1252.23L1445.36 1247.53L1428.12 1253.01L1405.39 1242.82L1444.58 1235.77L1440.66 1222.45L1450.07 1222.45L1444.58 1209.68L1431.26 1209.68L1423.42 1204.42L1412.45 1198.93L1428.91 1198.93L1435.96 1193.45L1428.12 1190.31L1410.1 1182.48L1420.29 1173.07L1425.77 1173.07L1436.74 1180.13L1441.45 1173.07C1448.76 1173.07 1451.63 1171.77 1450.07 1169.15C1448.5 1166.54 1448.5 1163.67 1450.07 1160.53L1459.47 1170.72L1466.52 1167.59C1469.66 1163.41 1469.14 1161.05 1464.96 1160.53C1460.78 1160.01 1455.81 1158.18 1450.07 1155.05L1442.23 1158.18C1432.3 1154.52 1426.55 1152.43 1424.99 1151.91C1423.42 1151.39 1420.02 1150.08 1414.8 1147.99L1428.91 1141.72L1428.91 1132.32L1441.45 1123.7L1432.82 1115.86L1443.8 1119L1450.07 1115.86L1457.9 1110.37L1445.36 1104.89L1442.23 1096.27L1450.07 1096.27L1453.99 1091.56L1461.82 1091.56L1466.52 1083.73L1457.12 1079.81L1446.15 1071.19L1439.88 1071.19L1424.2 1062.57L1427.34 1057.86L1423.42 1054.73L1439.88 1061C1445.63 1059.95 1449.02 1059.43 1450.07 1059.43C1451.63 1059.43 1455.55 1058.65 1457.9 1059.43C1459.47 1059.95 1462.61 1061.52 1467.31 1064.13L1463.39 1054.73L1461.82 1050.03L1450.07 1041.41L1461.82 1041.41L1468.09 1041.41C1464.96 1036.7 1462.34 1033.83 1460.25 1032.79C1457.12 1031.22 1457.12 1024.95 1450.07 1023.38C1445.36 1022.34 1440.92 1019.99 1436.74 1016.33C1434.65 1010.58 1432.82 1006.92 1431.26 1005.36C1429.69 1003.79 1435.96 1004.83 1450.07 1008.49L1446.15 999.09L1457.9 1004.57L1463.39 1007.71L1476.71 1013.98C1479.33 1012.41 1479.33 1010.58 1476.71 1008.49C1474.1 1006.4 1470.97 1003.27 1467.31 999.09L1461.82 992.82C1462.87 991.25 1462.61 989.94 1461.04 988.9C1459.47 987.85 1454.25 985.5 1445.36 981.84L1453.2 981.84L1461.82 981.84L1462.61 970.87L1467.31 970.87L1462.61 954.41C1463.65 953.89 1465.48 953.89 1468.09 954.41C1472.01 955.2 1481.42 958.42 1481.42 954.07C1481.42 951.16 1480.63 948.41 1479.06 945.79L1471.23 945.79L1472.79 939.52L1476.71 939.52C1478.8 937.96 1479.59 936.39 1479.06 934.82C1478.28 932.47 1473.58 930.9 1478.28 932.47C1482.98 934.04 1486.12 931.21 1487.69 931.84C1488.73 932.26 1491.08 923.06 1494.74 904.26L1501.69 905.57L1504.14 894.07Z" />
					</g>
					<g id="&lt;Group&gt;">
						<path id="&lt;Path&gt;" class="shp0" d="M891.39 908.87L895.13 920.9L900.12 918.32C903.51 935.77 905.69 944.3 906.66 943.91C908.12 943.33 911.02 945.95 915.39 944.5C919.75 943.05 915.39 944.5 914.66 946.68C914.18 948.14 914.9 949.59 916.84 951.05L920.48 951.05L921.93 956.86L914.66 956.86C913.21 959.29 912.48 961.85 912.48 964.54C912.48 968.58 921.21 965.59 924.84 964.86C927.27 964.38 928.96 964.38 929.93 964.86L925.57 980.13L929.93 980.13L930.66 990.32L938.66 990.32L945.93 990.32C937.69 993.71 932.84 995.89 931.39 996.86C929.93 997.83 929.69 999.04 930.66 1000.5L925.57 1006.32C922.18 1010.19 919.27 1013.1 916.84 1015.04C914.42 1016.98 914.42 1018.68 916.84 1020.13L929.21 1014.32L934.3 1011.41L945.2 1006.32L941.57 1015.04C954.66 1011.65 960.48 1010.68 959.02 1012.13C957.57 1013.59 955.87 1016.98 953.93 1022.31C950.05 1025.71 945.93 1027.89 941.57 1028.86C935.02 1030.31 935.02 1036.13 932.11 1037.59C930.17 1038.56 927.75 1041.22 924.84 1045.59L930.66 1045.59L941.57 1045.59L930.66 1053.59L929.21 1057.95L925.57 1066.68C929.93 1064.25 932.84 1062.8 934.3 1062.31C936.48 1061.59 940.11 1062.31 941.57 1062.31C942.54 1062.31 945.69 1062.8 951.02 1063.77L966.29 1057.95L962.66 1060.86L965.57 1065.22L951.02 1073.22L945.2 1073.22L935.02 1081.22L926.3 1084.86L930.66 1092.13L937.93 1092.13L941.57 1096.49L948.84 1096.49L945.93 1104.49L934.3 1109.58L941.57 1114.67L947.39 1117.58L957.57 1114.67L949.57 1121.95L961.2 1129.95L961.2 1138.67L974.29 1144.49C969.45 1146.43 966.29 1147.64 964.84 1148.13C963.39 1148.61 958.05 1150.55 948.84 1153.94L941.57 1151.04C936.24 1153.94 931.63 1155.64 927.75 1156.13C923.87 1156.61 923.39 1158.79 926.3 1162.67L932.84 1165.58L941.57 1156.13C943.02 1159.04 943.02 1161.7 941.57 1164.13C940.11 1166.55 942.78 1167.76 949.57 1167.76L953.93 1174.31L964.11 1167.76L969.2 1167.76L978.66 1176.49L961.93 1183.76L954.66 1186.67L961.2 1191.76L976.48 1191.76L966.29 1196.85L959.02 1201.74L946.66 1201.74L941.57 1213.58L950.3 1213.58L946.66 1225.94L983.02 1232.49L961.93 1241.94L945.93 1236.85L945.93 1241.21L928.48 1250.67L920.48 1255.76L911.75 1250.67L900.12 1255.03L900.12 1289.94L891.39 1289.94L882.66 1289.94L882.66 1255.03L871.03 1250.67L862.3 1255.76L854.3 1250.67L836.85 1241.21L836.85 1236.85L820.85 1241.94L799.76 1232.49L836.12 1225.94L832.48 1213.58L841.21 1213.58L836.12 1201.74L823.76 1201.74L816.48 1196.85L806.3 1191.76L821.57 1191.76L828.12 1186.67L820.85 1183.76L804.12 1176.49L813.57 1167.76L818.66 1167.76L828.85 1174.31L833.21 1167.76C840 1167.76 842.66 1166.55 841.21 1164.13C839.75 1161.7 839.75 1159.04 841.21 1156.13L849.94 1165.58L856.48 1162.67C859.39 1158.79 858.91 1156.61 855.03 1156.13C851.15 1155.64 846.54 1153.94 841.21 1151.04L833.94 1153.94C824.73 1150.55 819.39 1148.61 817.94 1148.13C816.48 1147.64 813.33 1146.43 808.48 1144.49L821.57 1138.67L821.57 1129.95L833.21 1121.95L825.21 1114.67L835.39 1117.58L841.21 1114.67L848.48 1109.58L836.85 1104.49L833.94 1096.49L841.21 1096.49L844.85 1092.13L852.12 1092.13L856.48 1084.86L847.75 1081.22L837.57 1073.22L831.76 1073.22L817.21 1065.22L820.12 1060.86L816.48 1057.95L831.76 1063.77C837.09 1062.8 840.24 1062.31 841.21 1062.31C842.66 1062.31 846.3 1061.59 848.48 1062.31C849.94 1062.8 852.85 1064.25 857.21 1066.68L853.57 1057.95L852.12 1053.59L841.21 1045.59L852.12 1045.59L857.94 1045.59C855.03 1041.22 852.6 1038.56 850.66 1037.59C847.75 1036.13 847.75 1030.31 841.21 1028.86C836.85 1027.89 832.72 1025.71 828.85 1022.31C826.91 1016.98 825.21 1013.59 823.76 1012.13C822.3 1010.68 828.12 1011.65 841.21 1015.04L837.57 1006.32L848.48 1011.41L853.57 1014.32L865.94 1020.13C868.36 1018.68 868.36 1016.98 865.94 1015.04C863.51 1013.1 860.6 1010.19 857.21 1006.32L852.12 1000.5C853.09 999.04 852.85 997.83 851.39 996.86C849.94 995.89 845.09 993.71 836.85 990.32L844.12 990.32L852.12 990.32L852.85 980.13L857.21 980.13L852.85 964.86C853.81 964.38 855.51 964.38 857.94 964.86C861.57 965.59 870.3 968.58 870.3 964.54C870.3 961.85 869.57 959.29 868.12 956.86L860.84 956.86L862.3 951.05L865.94 951.05C867.87 949.59 868.6 948.14 868.12 946.68C867.39 944.5 863.03 943.05 867.39 944.5C871.75 945.95 874.66 943.33 876.12 943.91C877.09 944.3 879.27 935.77 882.66 918.32L889.12 919.54L891.39 908.87Z" />
					</g>
					<g id="&lt;Group&gt;">
						<path id="&lt;Path&gt;" class="shp0" d="M1373.07 1027.37L1374.91 1033.29L1377.37 1032.02C1379.04 1040.62 1380.11 1044.82 1380.59 1044.63C1381.31 1044.34 1382.74 1045.63 1384.89 1044.91C1387.04 1044.2 1384.89 1044.91 1384.53 1045.99C1384.29 1046.7 1384.65 1047.42 1385.6 1048.14L1387.39 1048.14L1388.11 1051L1384.53 1051C1383.81 1052.2 1383.45 1053.46 1383.45 1054.78C1383.45 1056.77 1387.75 1055.3 1389.54 1054.94C1390.74 1054.7 1391.57 1054.7 1392.05 1054.94L1389.9 1062.46L1392.05 1062.46L1392.41 1067.47L1396.35 1067.47L1399.93 1067.47C1395.87 1069.14 1393.48 1070.22 1392.76 1070.7C1392.05 1071.17 1391.93 1071.77 1392.41 1072.49L1389.9 1075.35C1388.23 1077.26 1386.8 1078.69 1385.6 1079.65C1384.41 1080.6 1384.41 1081.44 1385.6 1082.15L1391.69 1079.29L1394.2 1077.86L1399.57 1075.35L1397.78 1079.65C1404.22 1077.98 1407.09 1077.5 1406.37 1078.21C1405.65 1078.93 1404.82 1080.6 1403.86 1083.23C1401.95 1084.9 1399.93 1085.97 1397.78 1086.45C1394.55 1087.17 1394.55 1090.03 1393.12 1090.75C1392.17 1091.22 1390.97 1092.54 1389.54 1094.69L1392.41 1094.69L1397.78 1094.69L1392.41 1098.62L1391.69 1100.77L1389.9 1105.07C1392.05 1103.88 1393.48 1103.16 1394.2 1102.92C1395.27 1102.56 1397.06 1102.92 1397.78 1102.92C1398.25 1102.92 1399.81 1103.16 1402.43 1103.64L1409.95 1100.77L1408.16 1102.21L1409.59 1104.35L1402.43 1108.29L1399.57 1108.29L1394.55 1112.23L1390.26 1114.02L1392.41 1117.6L1395.99 1117.6L1397.78 1119.75L1401.36 1119.75L1399.93 1123.69L1394.2 1126.2L1397.78 1128.7L1400.64 1130.13L1405.65 1128.7L1401.72 1132.28L1407.45 1136.22L1407.45 1140.52L1413.89 1143.38C1411.5 1144.34 1409.95 1144.94 1409.24 1145.17C1408.52 1145.41 1405.89 1146.37 1401.36 1148.04L1397.78 1146.61C1395.15 1148.04 1392.88 1148.87 1390.97 1149.11C1389.06 1149.35 1388.83 1150.43 1390.26 1152.34L1393.48 1153.77L1397.78 1149.11C1398.49 1150.54 1398.49 1151.86 1397.78 1153.05C1397.06 1154.24 1398.37 1154.84 1401.72 1154.84L1403.86 1158.06L1408.88 1154.84L1411.38 1154.84L1416.04 1159.14L1407.8 1162.72L1404.22 1164.15L1407.45 1166.66L1414.96 1166.66L1409.95 1169.16L1406.37 1171.57L1400.28 1171.57L1397.78 1177.4L1402.07 1177.4L1400.28 1183.49L1418.19 1186.71L1407.8 1191.36L1399.93 1188.86L1399.93 1191.01L1391.33 1195.66L1387.39 1198.17L1383.1 1195.66L1377.37 1197.81L1377.37 1243.02L1373.07 1243.02L1368.77 1243.02L1368.77 1197.81L1363.04 1195.66L1358.75 1198.17L1354.81 1195.66L1346.22 1191.01L1346.22 1188.86L1338.34 1191.36L1327.95 1186.71L1345.86 1183.49L1344.07 1177.4L1348.36 1177.4L1345.86 1171.57L1339.77 1171.57L1336.19 1169.16L1331.18 1166.66L1338.7 1166.66L1341.92 1164.15L1338.34 1162.72L1330.1 1159.14L1334.76 1154.84L1337.26 1154.84L1342.28 1158.06L1344.43 1154.84C1347.77 1154.84 1349.08 1154.24 1348.36 1153.05C1347.65 1151.86 1347.65 1150.54 1348.36 1149.11L1352.66 1153.77L1355.88 1152.34C1357.32 1150.43 1357.08 1149.35 1355.17 1149.11C1353.26 1148.87 1350.99 1148.04 1348.36 1146.61L1344.78 1148.04C1340.25 1146.37 1337.62 1145.41 1336.91 1145.17C1336.19 1144.94 1334.64 1144.34 1332.25 1143.38L1338.7 1140.52L1338.7 1136.22L1344.43 1132.28L1340.49 1128.7L1345.5 1130.13L1348.36 1128.7L1351.94 1126.2L1346.22 1123.69L1344.78 1119.75L1348.36 1119.75L1350.15 1117.6L1353.73 1117.6L1355.88 1114.02L1351.59 1112.23L1346.57 1108.29L1343.71 1108.29L1336.55 1104.35L1337.98 1102.21L1336.19 1100.77L1343.71 1103.64C1346.33 1103.16 1347.89 1102.92 1348.36 1102.92C1349.08 1102.92 1350.87 1102.56 1351.94 1102.92C1352.66 1103.16 1354.09 1103.88 1356.24 1105.07L1354.45 1100.77L1353.73 1098.62L1348.36 1094.69L1353.73 1094.69L1356.6 1094.69C1355.17 1092.54 1353.97 1091.22 1353.02 1090.75C1351.59 1090.03 1351.59 1087.17 1348.36 1086.45C1346.22 1085.97 1344.19 1084.9 1342.28 1083.23C1341.32 1080.6 1340.49 1078.93 1339.77 1078.21C1339.05 1077.5 1341.92 1077.98 1348.36 1079.65L1346.57 1075.35L1351.94 1077.86L1354.45 1079.29L1360.54 1082.15C1361.73 1081.44 1361.73 1080.6 1360.54 1079.65C1359.34 1078.69 1357.91 1077.26 1356.24 1075.35L1353.73 1072.49C1354.21 1071.77 1354.09 1071.17 1353.38 1070.7C1352.66 1070.22 1350.27 1069.14 1346.22 1067.47L1349.8 1067.47L1353.73 1067.47L1354.09 1062.46L1356.24 1062.46L1354.09 1054.94C1354.57 1054.7 1355.41 1054.7 1356.6 1054.94C1358.39 1055.3 1362.69 1056.77 1362.69 1054.78C1362.69 1053.46 1362.33 1052.2 1361.61 1051L1358.03 1051L1358.75 1048.14L1360.54 1048.14C1361.49 1047.42 1361.85 1046.7 1361.61 1045.99C1361.25 1044.91 1359.11 1044.2 1361.25 1044.91C1363.4 1045.63 1364.84 1044.34 1365.55 1044.63C1366.03 1044.82 1367.1 1040.62 1368.77 1032.02L1371.95 1032.62L1373.07 1027.37Z" />
					</g>
					<g id="&lt;Group&gt;">
						<path id="&lt;Path&gt;" class="shp0" d="M1217.65 1049.08L1219.12 1053.81L1221.08 1052.8C1222.41 1059.66 1223.27 1063.02 1223.65 1062.87C1224.22 1062.64 1225.37 1063.67 1227.08 1063.1C1228.8 1062.52 1227.08 1063.1 1226.8 1063.95C1226.61 1064.53 1226.89 1065.1 1227.65 1065.67L1229.08 1065.67L1229.66 1067.96L1226.8 1067.96C1226.22 1068.91 1225.94 1069.92 1225.94 1070.98C1225.94 1072.56 1229.37 1071.39 1230.8 1071.1C1231.75 1070.91 1232.42 1070.91 1232.8 1071.1L1231.09 1077.11L1232.8 1077.11L1233.09 1081.11L1236.23 1081.11L1239.09 1081.11C1235.85 1082.45 1233.94 1083.3 1233.37 1083.68C1232.8 1084.07 1232.71 1084.54 1233.09 1085.11L1231.09 1087.4C1229.75 1088.93 1228.61 1090.07 1227.65 1090.83C1226.7 1091.6 1226.7 1092.26 1227.65 1092.84L1232.52 1090.55L1234.52 1089.4L1238.81 1087.4L1237.38 1090.83C1242.52 1089.5 1244.81 1089.12 1244.24 1089.69C1243.67 1090.26 1243 1091.6 1242.24 1093.69C1240.71 1095.03 1239.09 1095.89 1237.38 1096.27C1234.8 1096.84 1234.8 1099.13 1233.66 1099.7C1232.9 1100.08 1231.94 1101.13 1230.8 1102.84L1233.09 1102.84L1237.38 1102.84L1233.09 1105.99L1232.52 1107.71L1231.09 1111.14C1232.8 1110.18 1233.94 1109.61 1234.52 1109.42C1235.37 1109.14 1236.8 1109.42 1237.38 1109.42C1237.76 1109.42 1239 1109.61 1241.09 1109.99L1247.1 1107.71L1245.67 1108.85L1246.81 1110.57L1241.09 1113.71L1238.81 1113.71L1234.8 1116.86L1231.37 1118.29L1233.09 1121.15L1235.95 1121.15L1237.38 1122.86L1240.24 1122.86L1239.09 1126.01L1234.52 1128.01L1237.38 1130.01L1239.66 1131.15L1243.67 1130.01L1240.52 1132.87L1245.1 1136.02L1245.1 1139.45L1250.24 1141.73C1248.34 1142.5 1247.1 1142.97 1246.53 1143.16C1245.96 1143.36 1243.86 1144.12 1240.24 1145.45L1237.38 1144.31C1235.28 1145.45 1233.47 1146.12 1231.94 1146.31C1230.42 1146.5 1230.23 1147.36 1231.37 1148.88L1233.94 1150.03L1237.38 1146.31C1237.95 1147.45 1237.95 1148.5 1237.38 1149.46C1236.8 1150.41 1237.85 1150.89 1240.52 1150.89L1242.24 1153.46L1246.24 1150.89L1248.24 1150.89L1251.96 1154.32L1245.38 1157.18L1242.52 1158.32L1245.1 1160.32L1251.1 1160.32L1247.1 1162.32L1244.24 1164.24L1239.38 1164.24L1237.38 1168.9L1240.81 1168.9L1239.38 1173.76L1253.68 1176.34L1245.38 1180.05L1239.09 1178.05L1239.09 1179.77L1232.23 1183.48L1229.08 1185.49L1225.65 1183.48L1221.08 1185.2L1221.08 1221.31L1217.65 1221.31L1214.21 1221.31L1214.21 1185.2L1209.64 1183.48L1206.21 1185.49L1203.06 1183.48L1196.2 1179.77L1196.2 1178.05L1189.91 1180.05L1181.61 1176.34L1195.91 1173.76L1194.48 1168.9L1197.91 1168.9L1195.91 1164.24L1191.05 1164.24L1188.19 1162.32L1184.19 1160.32L1190.19 1160.32L1192.77 1158.32L1189.91 1157.18L1183.33 1154.32L1187.05 1150.89L1189.05 1150.89L1193.05 1153.46L1194.77 1150.89C1197.44 1150.89 1198.49 1150.41 1197.91 1149.46C1197.34 1148.5 1197.34 1147.45 1197.91 1146.31L1201.35 1150.03L1203.92 1148.88C1205.06 1147.36 1204.87 1146.5 1203.35 1146.31C1201.82 1146.12 1200.01 1145.45 1197.91 1144.31L1195.05 1145.45C1191.43 1144.12 1189.34 1143.36 1188.76 1143.16C1188.19 1142.97 1186.95 1142.5 1185.05 1141.73L1190.19 1139.45L1190.19 1136.02L1194.77 1132.87L1191.62 1130.01L1195.63 1131.15L1197.91 1130.01L1200.77 1128.01L1196.2 1126.01L1195.05 1122.86L1197.91 1122.86L1199.34 1121.15L1202.2 1121.15L1203.92 1118.29L1200.49 1116.86L1196.48 1113.71L1194.2 1113.71L1188.48 1110.57L1189.62 1108.85L1188.19 1107.71L1194.2 1109.99C1196.29 1109.61 1197.53 1109.42 1197.91 1109.42C1198.49 1109.42 1199.92 1109.14 1200.77 1109.42C1201.35 1109.61 1202.49 1110.18 1204.2 1111.14L1202.78 1107.71L1202.2 1105.99L1197.91 1102.84L1202.2 1102.84L1204.49 1102.84C1203.35 1101.13 1202.39 1100.08 1201.63 1099.7C1200.49 1099.13 1200.49 1096.84 1197.91 1096.27C1196.2 1095.89 1194.58 1095.03 1193.05 1093.69C1192.29 1091.6 1191.62 1090.26 1191.05 1089.69C1190.48 1089.12 1192.77 1089.5 1197.91 1090.83L1196.48 1087.4L1200.77 1089.4L1202.78 1090.55L1207.64 1092.84C1208.59 1092.26 1208.59 1091.6 1207.64 1090.83C1206.68 1090.07 1205.54 1088.93 1204.2 1087.4L1202.2 1085.11C1202.58 1084.54 1202.49 1084.07 1201.92 1083.68C1201.35 1083.3 1199.44 1082.45 1196.2 1081.11L1199.06 1081.11L1202.2 1081.11L1202.49 1077.11L1204.2 1077.11L1202.49 1071.1C1202.87 1070.91 1203.54 1070.91 1204.49 1071.1C1205.92 1071.39 1209.35 1072.56 1209.35 1070.98C1209.35 1069.92 1209.07 1068.91 1208.49 1067.96L1205.63 1067.96L1206.21 1065.67L1207.64 1065.67C1208.4 1065.1 1208.69 1064.53 1208.49 1063.95C1208.21 1063.1 1206.49 1062.52 1208.21 1063.1C1209.92 1063.67 1211.07 1062.64 1211.64 1062.87C1212.02 1063.02 1212.88 1059.66 1214.21 1052.8L1216.75 1053.28L1217.65 1049.08Z" />
					</g>
					<g id="&lt;Group&gt;">
						<path id="&lt;Path&gt;" class="shp0" d="M1150.01 955.32L1152.05 961.87L1154.77 960.47C1156.62 969.98 1157.81 974.63 1158.34 974.42C1159.13 974.1 1160.71 975.53 1163.09 974.74C1165.47 973.95 1163.09 974.74 1162.7 975.93C1162.43 976.72 1162.83 977.51 1163.88 978.31L1165.87 978.31L1166.66 981.48L1162.7 981.48C1161.9 982.8 1161.51 984.19 1161.51 985.66C1161.51 987.87 1166.26 986.24 1168.25 985.84C1169.57 985.57 1170.49 985.57 1171.02 985.84L1168.64 994.16L1171.02 994.16L1171.42 999.71L1175.78 999.71L1179.74 999.71C1175.25 1001.56 1172.61 1002.75 1171.81 1003.28C1171.02 1003.81 1170.89 1004.47 1171.42 1005.26L1168.64 1008.43C1166.79 1010.55 1165.21 1012.13 1163.88 1013.19C1162.56 1014.25 1162.56 1015.17 1163.88 1015.96L1170.62 1012.79L1173.4 1011.21L1179.34 1008.43L1177.36 1013.19C1184.5 1011.34 1187.67 1010.81 1186.88 1011.6C1186.08 1012.4 1185.16 1014.25 1184.1 1017.15C1181.99 1019 1179.74 1020.19 1177.36 1020.72C1173.79 1021.51 1173.79 1024.68 1172.21 1025.48C1171.15 1026.01 1169.83 1027.46 1168.25 1029.84L1171.42 1029.84L1177.36 1029.84L1171.42 1034.2L1170.62 1036.58L1168.64 1041.33C1171.02 1040.01 1172.61 1039.22 1173.4 1038.95C1174.59 1038.56 1176.57 1038.95 1177.36 1038.95C1177.89 1038.95 1179.61 1039.22 1182.51 1039.75L1190.84 1036.58L1188.86 1038.16L1190.44 1040.54L1182.51 1044.9L1179.34 1044.9L1173.79 1049.26L1169.04 1051.24L1171.42 1055.21L1175.38 1055.21L1177.36 1057.58L1181.33 1057.58L1179.74 1061.94L1173.4 1064.72L1177.36 1067.49L1180.53 1069.08L1186.08 1067.49L1181.72 1071.46L1188.06 1075.82L1188.06 1080.57L1195.2 1083.75C1192.56 1084.8 1190.84 1085.46 1190.05 1085.73C1189.25 1085.99 1186.35 1087.05 1181.33 1088.9L1177.36 1087.31C1174.46 1088.9 1171.94 1089.82 1169.83 1090.09C1167.72 1090.35 1167.45 1091.54 1169.04 1093.65L1172.61 1095.24L1177.36 1090.09C1178.15 1091.67 1178.15 1093.13 1177.36 1094.45C1176.57 1095.77 1178.02 1096.43 1181.72 1096.43L1184.1 1100L1189.65 1096.43L1192.42 1096.43L1197.58 1101.19L1188.46 1105.15L1184.5 1106.74L1188.06 1109.51L1196.39 1109.51L1190.84 1112.28L1186.88 1114.95L1180.14 1114.95L1177.36 1121.4L1182.12 1121.4L1180.14 1128.14L1199.96 1131.71L1188.46 1136.86L1179.74 1134.09L1179.74 1136.46L1170.23 1141.62L1165.87 1144.39L1161.11 1141.62L1154.77 1144L1154.77 1194.05L1150.01 1194.05L1145.26 1194.05L1145.26 1144L1138.91 1141.62L1134.16 1144.39L1129.8 1141.62L1120.28 1136.46L1120.28 1134.09L1111.56 1136.86L1100.07 1131.71L1119.89 1128.14L1117.9 1121.4L1122.66 1121.4L1119.89 1114.95L1113.15 1114.95L1109.18 1112.28L1103.63 1109.51L1111.96 1109.51L1115.53 1106.74L1111.56 1105.15L1102.45 1101.19L1107.6 1096.43L1110.37 1096.43L1115.92 1100L1118.3 1096.43C1122 1096.43 1123.45 1095.77 1122.66 1094.45C1121.87 1093.13 1121.87 1091.67 1122.66 1090.09L1127.42 1095.24L1130.99 1093.65C1132.57 1091.54 1132.31 1090.35 1130.19 1090.09C1128.08 1089.82 1125.57 1088.9 1122.66 1087.31L1118.7 1088.9C1113.68 1087.05 1110.77 1085.99 1109.98 1085.73C1109.18 1085.46 1107.47 1084.8 1104.82 1083.75L1111.96 1080.57L1111.96 1075.82L1118.3 1071.46L1113.94 1067.49L1119.49 1069.08L1122.66 1067.49L1126.63 1064.72L1120.28 1061.94L1118.7 1057.58L1122.66 1057.58L1124.64 1055.21L1128.61 1055.21L1130.99 1051.24L1126.23 1049.26L1120.68 1044.9L1117.51 1044.9L1109.58 1040.54L1111.17 1038.16L1109.18 1036.58L1117.51 1039.75C1120.42 1039.22 1122.13 1038.95 1122.66 1038.95C1123.45 1038.95 1125.44 1038.56 1126.63 1038.95C1127.42 1039.22 1129 1040.01 1131.38 1041.33L1129.4 1036.58L1128.61 1034.2L1122.66 1029.84L1128.61 1029.84L1131.78 1029.84C1130.19 1027.46 1128.87 1026.01 1127.81 1025.48C1126.23 1024.68 1126.23 1021.51 1122.66 1020.72C1120.28 1020.19 1118.04 1019 1115.92 1017.15C1114.87 1014.25 1113.94 1012.4 1113.15 1011.6C1112.36 1010.81 1115.53 1011.34 1122.66 1013.19L1120.68 1008.43L1126.63 1011.21L1129.4 1012.79L1136.14 1015.96C1137.46 1015.17 1137.46 1014.25 1136.14 1013.19C1134.82 1012.13 1133.23 1010.55 1131.38 1008.43L1128.61 1005.26C1129.14 1004.47 1129 1003.81 1128.21 1003.28C1127.42 1002.75 1124.78 1001.56 1120.28 999.71L1124.25 999.71L1128.61 999.71L1129 994.16L1131.38 994.16L1129 985.84C1129.53 985.57 1130.46 985.57 1131.78 985.84C1133.76 986.24 1138.52 987.87 1138.52 985.66C1138.52 984.19 1138.12 982.8 1137.33 981.48L1133.36 981.48L1134.16 978.31L1136.14 978.31C1137.2 977.51 1137.59 976.72 1137.33 975.93C1136.93 974.74 1134.55 973.95 1136.93 974.74C1139.31 975.53 1140.89 974.1 1141.69 974.42C1142.22 974.63 1143.41 969.98 1145.26 960.47L1148.77 961.13L1150.01 955.32Z" />
					</g>
					<g id="&lt;Group&gt;">
						<path id="&lt;Path&gt;" class="shp0" d="M1089.29 1001.43L1090.9 1006.59L1093.03 1005.49C1094.49 1012.98 1095.42 1016.64 1095.84 1016.47C1096.46 1016.22 1097.71 1017.35 1099.59 1016.72C1101.46 1016.1 1099.59 1016.72 1099.27 1017.66C1099.07 1018.28 1099.38 1018.91 1100.21 1019.53L1101.77 1019.53L1102.39 1022.03L1099.27 1022.03C1098.65 1023.07 1098.34 1024.16 1098.34 1025.32C1098.34 1027.05 1102.08 1025.77 1103.64 1025.46C1104.68 1025.25 1105.41 1025.25 1105.83 1025.46L1103.95 1032.01L1105.83 1032.01L1106.14 1036.38L1109.57 1036.38L1112.69 1036.38C1109.16 1037.84 1107.08 1038.77 1106.45 1039.19C1105.83 1039.61 1105.72 1040.13 1106.14 1040.75L1103.95 1043.25C1102.5 1044.91 1101.25 1046.16 1100.21 1046.99C1099.17 1047.82 1099.17 1048.55 1100.21 1049.18L1105.51 1046.68L1107.7 1045.43L1112.38 1043.25L1110.82 1046.99C1116.44 1045.53 1118.93 1045.12 1118.31 1045.74C1117.69 1046.37 1116.96 1047.82 1116.12 1050.11C1114.46 1051.57 1112.69 1052.5 1110.82 1052.92C1108.01 1053.54 1108.01 1056.04 1106.76 1056.66C1105.93 1057.08 1104.89 1058.23 1103.64 1060.1L1106.14 1060.1L1110.82 1060.1L1106.14 1063.53L1105.51 1065.4L1103.95 1069.15C1105.83 1068.11 1107.08 1067.48 1107.7 1067.28C1108.64 1066.96 1110.2 1067.28 1110.82 1067.28C1111.24 1067.28 1112.59 1067.48 1114.88 1067.9L1121.43 1065.4L1119.87 1066.65L1121.12 1068.52L1114.88 1071.96L1112.38 1071.96L1108.01 1075.39L1104.27 1076.95L1106.14 1080.07L1109.26 1080.07L1110.82 1081.94L1113.94 1081.94L1112.69 1085.37L1107.7 1087.56L1110.82 1089.74L1113.32 1090.99L1117.68 1089.74L1114.25 1092.86L1119.25 1096.3L1119.25 1100.04L1124.86 1102.54C1122.78 1103.37 1121.43 1103.89 1120.81 1104.1C1120.18 1104.31 1117.89 1105.14 1113.94 1106.59L1110.82 1105.35C1108.53 1106.59 1106.55 1107.32 1104.89 1107.53C1103.23 1107.74 1103.02 1108.67 1104.27 1110.34L1107.08 1111.59L1110.82 1107.53C1111.44 1108.78 1111.44 1109.92 1110.82 1110.96C1110.2 1112 1111.34 1112.52 1114.25 1112.52L1116.12 1115.33L1120.49 1112.52L1122.68 1112.52L1126.73 1116.27L1119.56 1119.39L1116.44 1120.64L1119.25 1122.82L1125.8 1122.82L1121.43 1125.01L1118.31 1127.1L1113 1127.1L1110.82 1132.18L1114.56 1132.18L1113 1137.49L1128.61 1140.3L1119.56 1144.35L1112.69 1142.17L1112.69 1144.04L1105.2 1148.1L1101.77 1150.28L1098.03 1148.1L1093.03 1149.97L1093.03 1189.38L1089.29 1189.38L1085.54 1189.38L1085.54 1149.97L1080.55 1148.1L1076.81 1150.28L1073.37 1148.1L1065.88 1144.04L1065.88 1142.17L1059.02 1144.35L1049.97 1140.3L1065.57 1137.49L1064.01 1132.18L1067.76 1132.18L1065.57 1127.1L1060.27 1127.1L1057.15 1125.01L1052.78 1122.82L1059.33 1122.82L1062.14 1120.64L1059.02 1119.39L1051.84 1116.27L1055.9 1112.52L1058.08 1112.52L1062.45 1115.33L1064.32 1112.52C1067.24 1112.52 1068.38 1112 1067.76 1110.96C1067.13 1109.92 1067.13 1108.78 1067.76 1107.53L1071.5 1111.59L1074.31 1110.34C1075.56 1108.67 1075.35 1107.74 1073.68 1107.53C1072.02 1107.32 1070.04 1106.59 1067.76 1105.35L1064.63 1106.59C1060.68 1105.14 1058.39 1104.31 1057.77 1104.1C1057.15 1103.89 1055.79 1103.37 1053.71 1102.54L1059.33 1100.04L1059.33 1096.3L1064.32 1092.86L1060.89 1089.74L1065.26 1090.99L1067.76 1089.74L1070.88 1087.56L1065.88 1085.37L1064.63 1081.94L1067.76 1081.94L1069.32 1080.07L1072.44 1080.07L1074.31 1076.95L1070.56 1075.39L1066.2 1071.96L1063.7 1071.96L1057.46 1068.52L1058.71 1066.65L1057.15 1065.4L1063.7 1067.9C1065.99 1067.48 1067.34 1067.28 1067.76 1067.28C1068.38 1067.28 1069.94 1066.96 1070.88 1067.28C1071.5 1067.48 1072.75 1068.11 1074.62 1069.15L1073.06 1065.4L1072.44 1063.53L1067.76 1060.1L1072.44 1060.1L1074.93 1060.1C1073.68 1058.23 1072.64 1057.08 1071.81 1056.66C1070.56 1056.04 1070.56 1053.54 1067.76 1052.92C1065.88 1052.5 1064.11 1051.57 1062.45 1050.11C1061.62 1047.82 1060.89 1046.37 1060.27 1045.74C1059.64 1045.12 1062.14 1045.53 1067.76 1046.99L1066.2 1043.25L1070.88 1045.43L1073.06 1046.68L1078.37 1049.18C1079.41 1048.55 1079.41 1047.82 1078.37 1046.99C1077.33 1046.16 1076.08 1044.91 1074.62 1043.25L1072.44 1040.75C1072.85 1040.13 1072.75 1039.61 1072.12 1039.19C1071.5 1038.77 1069.42 1037.84 1065.88 1036.38L1069 1036.38L1072.44 1036.38L1072.75 1032.01L1074.62 1032.01L1072.75 1025.46C1073.16 1025.25 1073.89 1025.25 1074.93 1025.46C1076.49 1025.77 1080.24 1027.05 1080.24 1025.32C1080.24 1024.16 1079.93 1023.07 1079.3 1022.03L1076.18 1022.03L1076.81 1019.53L1078.37 1019.53C1079.2 1018.91 1079.51 1018.28 1079.3 1017.66C1078.99 1016.72 1077.12 1016.1 1078.99 1016.72C1080.86 1017.35 1082.11 1016.22 1082.73 1016.47C1083.15 1016.64 1084.09 1012.98 1085.54 1005.49L1088.31 1006.01L1089.29 1001.43Z" />
					</g>
					<g id="&lt;Group&gt;">
						<path id="&lt;Path&gt;" class="shp0" d="M975.34 1048.98L976.95 1054.14L979.09 1053.04C980.55 1060.53 981.48 1064.19 981.9 1064.02C982.52 1063.77 983.77 1064.9 985.64 1064.27C987.51 1063.65 985.64 1064.27 985.33 1065.21C985.12 1065.83 985.43 1066.46 986.27 1067.08L987.83 1067.08L988.45 1069.58L985.33 1069.58C984.71 1070.62 984.39 1071.72 984.39 1072.87C984.39 1074.6 988.14 1073.32 989.7 1073.01C990.74 1072.8 991.47 1072.8 991.88 1073.01L990.01 1079.56L991.88 1079.56L992.2 1083.93L995.63 1083.93L998.75 1083.93C995.21 1085.39 993.13 1086.32 992.51 1086.74C991.88 1087.16 991.78 1087.68 992.2 1088.3L990.01 1090.8C988.55 1092.46 987.31 1093.71 986.27 1094.54C985.23 1095.37 985.23 1096.1 986.27 1096.73L991.57 1094.23L993.76 1092.98L998.44 1090.8L996.88 1094.54C1002.49 1093.09 1004.99 1092.67 1004.37 1093.29C1003.74 1093.92 1003.01 1095.37 1002.18 1097.66C1000.52 1099.12 998.75 1100.05 996.88 1100.47C994.07 1101.1 994.07 1103.59 992.82 1104.22C991.99 1104.63 990.95 1105.78 989.7 1107.65L992.2 1107.65L996.88 1107.65L992.2 1111.08L991.57 1112.95L990.01 1116.7C991.88 1115.66 993.13 1115.03 993.76 1114.83C994.69 1114.51 996.25 1114.83 996.88 1114.83C997.29 1114.83 998.64 1115.03 1000.93 1115.45L1007.49 1112.95L1005.93 1114.2L1007.17 1116.07L1000.93 1119.51L998.44 1119.51L994.07 1122.94L990.32 1124.5L992.2 1127.62L995.32 1127.62L996.88 1129.49L1000 1129.49L998.75 1132.93L993.76 1135.11L996.88 1137.29L999.37 1138.54L1003.74 1137.29L1000.31 1140.41L1005.3 1143.85L1005.3 1147.59L1010.92 1150.09C1008.84 1150.92 1007.49 1151.44 1006.86 1151.65C1006.24 1151.86 1003.95 1152.69 1000 1154.15L996.88 1152.9C994.59 1154.15 992.61 1154.87 990.95 1155.08C989.28 1155.29 989.08 1156.23 990.32 1157.89L993.13 1159.14L996.88 1155.08C997.5 1156.33 997.5 1157.47 996.88 1158.51C996.25 1159.55 997.4 1160.07 1000.31 1160.07L1002.18 1162.88L1006.55 1160.07L1008.73 1160.07L1012.79 1163.82L1005.61 1166.94L1002.49 1168.19L1005.3 1170.37L1011.86 1170.37L1007.49 1172.56L1004.37 1174.65L999.06 1174.65L996.88 1179.73L1000.62 1179.73L999.06 1185.04L1014.66 1187.85L1005.61 1191.9L998.75 1189.72L998.75 1191.59L991.26 1195.65L987.83 1197.83L984.08 1195.65L979.09 1197.52L979.09 1236.93L975.34 1236.93L971.6 1236.93L971.6 1197.52L966.61 1195.65L962.86 1197.83L959.43 1195.65L951.94 1191.59L951.94 1189.72L945.07 1191.9L936.02 1187.85L951.63 1185.04L950.07 1179.73L953.81 1179.73L951.63 1174.65L946.32 1174.65L943.2 1172.56L938.83 1170.37L945.39 1170.37L948.2 1168.19L945.07 1166.94L937.9 1163.82L941.95 1160.07L944.14 1160.07L948.51 1162.88L950.38 1160.07C953.29 1160.07 954.44 1159.55 953.81 1158.51C953.19 1157.47 953.19 1156.33 953.81 1155.08L957.56 1159.14L960.37 1157.89C961.61 1156.23 961.41 1155.29 959.74 1155.08C958.08 1154.87 956.1 1154.15 953.81 1152.9L950.69 1154.15C946.74 1152.69 944.45 1151.86 943.83 1151.65C943.2 1151.44 941.85 1150.92 939.77 1150.09L945.39 1147.59L945.39 1143.85L950.38 1140.41L946.95 1137.29L951.32 1138.54L953.81 1137.29L956.93 1135.11L951.94 1132.93L950.69 1129.49L953.81 1129.49L955.37 1127.62L958.49 1127.62L960.37 1124.5L956.62 1122.94L952.25 1119.51L949.76 1119.51L943.51 1116.07L944.76 1114.2L943.2 1112.95L949.76 1115.45C952.04 1115.03 953.4 1114.83 953.81 1114.83C954.44 1114.83 956 1114.51 956.93 1114.83C957.56 1115.03 958.81 1115.66 960.68 1116.7L959.12 1112.95L958.49 1111.08L953.81 1107.65L958.49 1107.65L960.99 1107.65C959.74 1105.78 958.7 1104.63 957.87 1104.22C956.62 1103.59 956.62 1101.1 953.81 1100.47C951.94 1100.05 950.17 1099.12 948.51 1097.66C947.68 1095.37 946.95 1093.92 946.32 1093.29C945.7 1092.67 948.2 1093.09 953.81 1094.54L952.25 1090.8L956.93 1092.98L959.12 1094.23L964.42 1096.73C965.46 1096.1 965.46 1095.37 964.42 1094.54C963.38 1093.71 962.13 1092.46 960.68 1090.8L958.49 1088.3C958.91 1087.68 958.81 1087.16 958.18 1086.74C957.56 1086.32 955.48 1085.39 951.94 1083.93L955.06 1083.93L958.49 1083.93L958.81 1079.56L960.68 1079.56L958.81 1073.01C959.22 1072.8 959.95 1072.8 960.99 1073.01C962.55 1073.32 966.29 1074.6 966.29 1072.87C966.29 1071.72 965.98 1070.62 965.36 1069.58L962.24 1069.58L962.86 1067.08L964.42 1067.08C965.25 1066.46 965.57 1065.83 965.36 1065.21C965.05 1064.27 963.17 1063.65 965.05 1064.27C966.92 1064.9 968.17 1063.77 968.79 1064.02C969.21 1064.19 970.14 1060.53 971.6 1053.04L974.37 1053.56L975.34 1048.98Z" />
					</g>
					<g id="&lt;Group&gt;">
						<path id="&lt;Path&gt;" class="shp0" d="M2465.18 935.7L2468 944.76L2471.76 942.82C2474.31 955.97 2475.96 962.4 2476.69 962.11C2477.78 961.67 2479.97 963.64 2483.26 962.55C2486.55 961.45 2483.26 962.55 2482.71 964.19C2482.35 965.29 2482.9 966.38 2484.36 967.48L2487.1 967.48L2488.19 971.86L2482.71 971.86C2481.62 973.69 2481.07 975.62 2481.07 977.65C2481.07 980.69 2487.65 978.44 2490.39 977.89C2492.21 977.52 2493.49 977.52 2494.22 977.89L2490.93 989.4L2494.22 989.4L2494.77 997.07L2500.8 997.07L2506.28 997.07C2500.07 999.63 2496.41 1001.27 2495.32 1002C2494.22 1002.73 2494.04 1003.64 2494.77 1004.74L2490.93 1009.12C2488.38 1012.05 2486.18 1014.24 2484.36 1015.7C2482.53 1017.16 2482.53 1018.44 2484.36 1019.53L2493.67 1015.15L2497.51 1012.96L2505.73 1009.12L2502.99 1015.7C2512.85 1013.14 2517.24 1012.41 2516.14 1013.51C2515.04 1014.6 2513.77 1017.16 2512.3 1021.18C2509.38 1023.74 2506.28 1025.38 2502.99 1026.11C2498.06 1027.21 2498.06 1031.59 2495.87 1032.69C2494.4 1033.42 2492.58 1035.43 2490.39 1038.71L2494.77 1038.71L2502.99 1038.71L2494.77 1044.74L2493.67 1048.03L2490.93 1054.6C2494.22 1052.78 2496.41 1051.68 2497.51 1051.32C2499.15 1050.77 2501.89 1051.32 2502.99 1051.32C2503.72 1051.32 2506.09 1051.68 2510.11 1052.41L2521.62 1048.03L2518.88 1050.22L2521.07 1053.51L2510.11 1059.54L2505.73 1059.54L2498.06 1065.56L2491.48 1068.3L2494.77 1073.78L2500.25 1073.78L2502.99 1077.07L2508.47 1077.07L2506.28 1083.1L2497.51 1086.93L2502.99 1090.77L2507.37 1092.96L2515.04 1090.77L2509.02 1096.25L2517.78 1102.28L2517.78 1108.85L2527.65 1113.23C2523.99 1114.7 2521.62 1115.61 2520.52 1115.97C2519.43 1116.34 2515.41 1117.8 2508.47 1120.36L2502.99 1118.17C2498.97 1120.36 2495.5 1121.64 2492.58 1122C2489.66 1122.37 2489.29 1124.01 2491.48 1126.93L2496.41 1129.12L2502.99 1122C2504.08 1124.19 2504.08 1126.2 2502.99 1128.03C2501.89 1129.86 2503.9 1130.77 2509.02 1130.77L2512.3 1135.7L2519.98 1130.77L2523.81 1130.77L2530.93 1137.34L2518.33 1142.82L2512.85 1145.02L2517.78 1148.85L2529.29 1148.85L2521.62 1152.69L2516.14 1156.37L2506.82 1156.37L2502.99 1165.29L2509.56 1165.29L2506.82 1174.6L2534.22 1179.54L2518.33 1186.66L2506.28 1182.82L2506.28 1186.11L2493.13 1193.24L2487.1 1197.07L2480.52 1193.24L2471.76 1196.52L2471.76 1222.82L2465.18 1222.82L2458.6 1222.82L2458.6 1196.52L2449.84 1193.24L2443.26 1197.07L2437.23 1193.24L2424.08 1186.11L2424.08 1182.82L2412.03 1186.66L2396.14 1179.54L2423.54 1174.6L2420.8 1165.29L2427.37 1165.29L2423.54 1156.37L2414.22 1156.37L2408.74 1152.69L2401.07 1148.85L2412.58 1148.85L2417.51 1145.02L2412.03 1142.82L2399.43 1137.34L2406.55 1130.77L2410.38 1130.77L2418.06 1135.7L2421.34 1130.77C2426.46 1130.77 2428.47 1129.86 2427.37 1128.03C2426.28 1126.2 2426.28 1124.19 2427.37 1122L2433.95 1129.12L2438.88 1126.93C2441.07 1124.01 2440.7 1122.37 2437.78 1122C2434.86 1121.64 2431.39 1120.36 2427.37 1118.17L2421.89 1120.36C2414.95 1117.8 2410.93 1116.34 2409.84 1115.97C2408.74 1115.61 2406.37 1114.7 2402.71 1113.23L2412.58 1108.85L2412.58 1102.28L2421.34 1096.25L2415.32 1090.77L2422.99 1092.96L2427.37 1090.77L2432.85 1086.93L2424.08 1083.1L2421.89 1077.07L2427.37 1077.07L2430.11 1073.78L2435.59 1073.78L2438.88 1068.3L2432.3 1065.56L2424.63 1059.54L2420.25 1059.54L2409.29 1053.51L2411.48 1050.22L2408.74 1048.03L2420.25 1052.41C2424.27 1051.68 2426.64 1051.32 2427.37 1051.32C2428.47 1051.32 2431.21 1050.77 2432.85 1051.32C2433.95 1051.68 2436.14 1052.78 2439.43 1054.6L2436.69 1048.03L2435.59 1044.74L2427.37 1038.71L2435.59 1038.71L2439.97 1038.71C2437.78 1035.43 2435.96 1033.42 2434.49 1032.69C2432.3 1031.59 2432.3 1027.21 2427.37 1026.11C2424.08 1025.38 2420.98 1023.74 2418.06 1021.18C2416.59 1017.16 2415.32 1014.6 2414.22 1013.51C2413.12 1012.41 2417.51 1013.14 2427.37 1015.7L2424.63 1009.12L2432.85 1012.96L2436.69 1015.15L2446 1019.53C2447.83 1018.44 2447.83 1017.16 2446 1015.7C2444.18 1014.24 2441.98 1012.05 2439.43 1009.12L2435.59 1004.74C2436.32 1003.64 2436.14 1002.73 2435.04 1002C2433.95 1001.27 2430.29 999.63 2424.08 997.07L2429.56 997.07L2435.59 997.07L2436.14 989.4L2439.43 989.4L2436.14 977.89C2436.87 977.52 2438.15 977.52 2439.97 977.89C2442.71 978.44 2449.29 980.69 2449.29 977.65C2449.29 975.62 2448.74 973.69 2447.65 971.86L2442.17 971.86L2443.26 967.48L2446 967.48C2447.46 966.38 2448.01 965.29 2447.65 964.19C2447.1 962.55 2443.81 961.45 2447.1 962.55C2450.39 963.64 2452.58 961.67 2453.67 962.11C2454.4 962.4 2456.05 955.97 2458.6 942.82L2463.47 943.74L2465.18 935.7Z" />
					</g>
					<g id="&lt;Group&gt;">
						<path id="&lt;Path&gt;" class="shp0" d="M2366.6 818.89L2370 829.82L2374.53 827.48C2377.61 843.34 2379.59 851.1 2380.47 850.74C2381.8 850.21 2384.44 852.59 2388.4 851.27C2392.37 849.95 2388.4 851.27 2387.74 853.25C2387.3 854.58 2387.96 855.9 2389.73 857.22L2393.03 857.22L2394.35 862.51L2387.74 862.51C2386.42 864.71 2385.76 867.03 2385.76 869.48C2385.76 873.15 2393.69 870.44 2396.99 869.78C2399.2 869.34 2400.74 869.34 2401.62 869.78L2397.66 883.65L2401.62 883.65L2402.28 892.9L2409.55 892.9L2416.16 892.9C2408.67 895.99 2404.26 897.97 2402.94 898.85C2401.62 899.73 2401.4 900.83 2402.28 902.16L2397.66 907.44C2394.57 910.97 2391.93 913.61 2389.73 915.37C2387.52 917.13 2387.52 918.68 2389.73 920L2400.96 914.71L2405.59 912.07L2415.5 907.44L2412.19 915.37C2424.09 912.29 2429.38 911.41 2428.05 912.73C2426.73 914.05 2425.19 917.14 2423.43 921.98C2419.9 925.06 2416.16 927.05 2412.19 927.93C2406.25 929.25 2406.25 934.54 2403.6 935.86C2401.84 936.74 2399.64 939.16 2396.99 943.13L2402.28 943.13L2412.19 943.13L2402.28 950.4L2400.96 954.36L2397.66 962.29C2401.62 960.09 2404.26 958.77 2405.59 958.33C2407.57 957.67 2410.87 958.33 2412.19 958.33C2413.07 958.33 2415.94 958.77 2420.78 959.65L2434.66 954.36L2431.36 957L2434 960.97L2420.78 968.24L2415.5 968.24L2406.25 975.51L2398.32 978.81L2402.28 985.42L2408.89 985.42L2412.19 989.39L2418.8 989.39L2416.16 996.65L2405.59 1001.28L2412.19 1005.91L2417.48 1008.55L2426.73 1005.91L2419.46 1012.51L2430.04 1019.78L2430.04 1027.71L2441.93 1033C2437.53 1034.76 2434.66 1035.86 2433.34 1036.3C2432.02 1036.75 2427.17 1038.51 2418.8 1041.59L2412.19 1038.95C2407.35 1041.59 2403.16 1043.13 2399.64 1043.57C2396.11 1044.01 2395.67 1046 2398.32 1049.52L2404.26 1052.16L2412.19 1043.57C2413.52 1046.22 2413.52 1048.64 2412.19 1050.84C2410.87 1053.05 2413.3 1054.15 2419.46 1054.15L2423.43 1060.09L2432.68 1054.15L2437.31 1054.15L2445.9 1062.08L2430.7 1068.69L2424.09 1071.33L2430.04 1075.95L2443.91 1075.95L2434.66 1080.58L2428.05 1085.02L2416.82 1085.02L2412.19 1095.78L2420.12 1095.78L2416.82 1107.01L2449.86 1112.96L2430.7 1121.55L2416.16 1116.93L2416.16 1120.89L2400.3 1129.48L2393.03 1134.11L2385.1 1129.48L2374.53 1133.45L2374.53 1165.17L2366.6 1165.17L2358.67 1165.17L2358.67 1133.45L2348.09 1129.48L2340.16 1134.11L2332.89 1129.48L2317.03 1120.89L2317.03 1116.93L2302.5 1121.55L2283.33 1112.96L2316.37 1107.01L2313.07 1095.78L2321 1095.78L2316.37 1085.02L2305.14 1085.02L2298.53 1080.58L2289.28 1075.95L2303.16 1075.95L2309.1 1071.33L2302.5 1068.69L2287.3 1062.08L2295.89 1054.15L2300.51 1054.15L2309.77 1060.09L2313.73 1054.15C2319.9 1054.15 2322.32 1053.05 2321 1050.84C2319.68 1048.64 2319.68 1046.22 2321 1043.57L2328.93 1052.16L2334.88 1049.52C2337.52 1046 2337.08 1044.01 2333.56 1043.57C2330.03 1043.13 2325.85 1041.59 2321 1038.95L2314.39 1041.59C2306.02 1038.51 2301.17 1036.75 2299.85 1036.3C2298.53 1035.86 2295.67 1034.76 2291.26 1033L2303.16 1027.71L2303.16 1019.78L2313.73 1012.51L2306.46 1005.91L2315.71 1008.55L2321 1005.91L2327.61 1001.28L2317.03 996.65L2314.39 989.39L2321 989.39L2324.3 985.42L2330.91 985.42L2334.88 978.81L2326.95 975.51L2317.7 968.24L2312.41 968.24L2299.19 960.97L2301.84 957L2298.53 954.36L2312.41 959.65C2317.25 958.77 2320.12 958.33 2321 958.33C2322.32 958.33 2325.63 957.67 2327.61 958.33C2328.93 958.77 2331.57 960.09 2335.54 962.29L2332.23 954.36L2330.91 950.4L2321 943.13L2330.91 943.13L2336.2 943.13C2333.56 939.16 2331.35 936.74 2329.59 935.86C2326.95 934.54 2326.95 929.25 2321 927.93C2317.03 927.05 2313.29 925.06 2309.77 921.98C2308 917.14 2306.46 914.05 2305.14 912.73C2303.82 911.41 2309.1 912.29 2321 915.37L2317.7 907.44L2327.61 912.07L2332.23 914.71L2343.47 920C2345.67 918.68 2345.67 917.13 2343.47 915.37C2341.26 913.61 2338.62 910.97 2335.54 907.44L2330.91 902.16C2331.79 900.83 2331.57 899.73 2330.25 898.85C2328.93 897.97 2324.52 895.99 2317.03 892.9L2323.64 892.9L2330.91 892.9L2331.57 883.65L2335.54 883.65L2331.57 869.78C2332.45 869.34 2334 869.34 2336.2 869.78C2339.5 870.44 2347.43 873.15 2347.43 869.48C2347.43 867.03 2346.77 864.71 2345.45 862.51L2338.84 862.51L2340.16 857.22L2343.47 857.22C2345.23 855.9 2345.89 854.58 2345.45 853.25C2344.79 851.27 2340.82 849.95 2344.79 851.27C2348.75 852.59 2351.4 850.21 2352.72 850.74C2353.6 851.1 2355.58 843.34 2358.67 827.48L2364.53 828.59L2366.6 818.89Z" />
					</g>
					<g id="&lt;Group&gt;">
						<path id="&lt;Path&gt;" class="shp0" d="M298.03 767.61L304.82 789.42L313.85 784.75C320.01 816.41 323.96 831.88 325.72 831.17C328.36 830.11 333.64 834.87 341.55 832.23C349.46 829.6 341.55 832.23 340.23 836.19C339.35 838.83 340.67 841.47 344.19 844.1L350.78 844.1L353.42 854.66L340.23 854.66C337.59 859.05 336.27 863.69 336.27 868.58C336.27 875.9 352.1 870.48 358.7 869.16C363.09 868.28 366.17 868.28 367.93 869.16L360.01 896.86L367.93 896.86L369.25 915.33L383.75 915.33L396.94 915.33C382 921.48 373.2 925.44 370.57 927.2C367.93 928.95 367.49 931.15 369.25 933.79L360.01 944.34C353.86 951.38 348.58 956.65 344.19 960.17C339.79 963.69 339.79 966.76 344.19 969.4L366.61 958.85L375.84 953.57L395.62 944.34L389.03 960.17C412.77 954.01 423.32 952.25 420.68 954.89C418.05 957.53 414.97 963.69 411.45 973.36C404.42 979.51 396.94 983.47 389.03 985.23C377.16 987.87 377.16 998.42 371.88 1001.05C368.37 1002.81 363.97 1007.65 358.7 1015.56L369.25 1015.56L389.03 1015.56L369.25 1030.07L366.61 1037.98L360.01 1053.81C367.93 1049.41 373.2 1046.78 375.84 1045.9C379.8 1044.58 386.39 1045.9 389.03 1045.9C390.79 1045.9 396.5 1046.78 406.18 1048.54L433.87 1037.98L427.28 1043.26L432.55 1051.17L406.18 1065.68L395.62 1065.68L377.16 1080.19L361.33 1086.78L369.25 1099.97L382.44 1099.97L389.03 1107.89L402.22 1107.89L396.94 1122.39L375.84 1131.63L389.03 1140.86L399.58 1146.13L418.05 1140.86L403.54 1154.05L424.64 1168.56L424.64 1184.38L448.38 1194.93C439.59 1198.45 433.87 1200.65 431.24 1201.53C428.6 1202.41 418.93 1205.93 402.22 1212.08L389.03 1206.8C379.36 1212.08 371 1215.16 363.97 1216.04C356.94 1216.92 356.06 1220.87 361.33 1227.91L373.2 1233.18L389.03 1216.04C391.67 1221.31 391.67 1226.15 389.03 1230.54C386.39 1234.94 391.23 1237.14 403.54 1237.14L411.45 1249.01L429.92 1237.14L439.15 1237.14L456.29 1252.97L425.96 1266.16L412.77 1271.43L424.64 1280.66L452.34 1280.66L433.87 1289.9L420.68 1298.75L398.26 1298.75L389.03 1320.23L404.86 1320.23L398.26 1342.65L464.21 1354.52L425.96 1371.67L396.94 1362.44L396.94 1370.35L365.29 1387.5L350.78 1396.73L334.95 1387.5L313.85 1395.41L313.85 1458.72L298.03 1458.72L282.2 1458.72L282.2 1395.41L261.1 1387.5L245.27 1396.73L230.76 1387.5L199.11 1370.35L199.11 1362.44L170.09 1371.67L131.84 1354.52L197.79 1342.65L191.19 1320.23L207.02 1320.23L197.79 1298.75L175.37 1298.75L162.18 1289.9L143.71 1280.66L171.41 1280.66L183.28 1271.43L170.09 1266.16L139.76 1252.97L156.9 1237.14L166.13 1237.14L184.6 1249.01L192.51 1237.14C204.82 1237.14 209.66 1234.94 207.02 1230.54C204.38 1226.15 204.38 1221.31 207.02 1216.04L222.85 1233.18L234.72 1227.91C239.99 1220.87 239.11 1216.92 232.08 1216.04C225.05 1215.16 216.69 1212.08 207.02 1206.8L193.83 1212.08C177.13 1205.93 167.45 1202.41 164.82 1201.53C162.18 1200.65 156.46 1198.45 147.67 1194.93L171.41 1184.38L171.41 1168.56L192.51 1154.05L178 1140.86L196.47 1146.13L207.02 1140.86L220.21 1131.63L199.11 1122.39L193.83 1107.89L207.02 1107.89L213.62 1099.97L226.8 1099.97L234.72 1086.78L218.89 1080.19L200.43 1065.68L189.87 1065.68L163.5 1051.17L168.77 1043.26L162.18 1037.98L189.87 1048.54C199.55 1046.78 205.26 1045.9 207.02 1045.9C209.66 1045.9 216.25 1044.58 220.21 1045.9C222.85 1046.78 228.12 1049.41 236.04 1053.81L229.44 1037.98L226.8 1030.07L207.02 1015.56L226.8 1015.56L237.36 1015.56C232.08 1007.65 227.68 1002.81 224.17 1001.05C218.89 998.42 218.89 987.87 207.02 985.23C199.11 983.47 191.63 979.51 184.6 973.36C181.08 963.69 178 957.53 175.37 954.89C172.73 952.25 183.28 954.01 207.02 960.17L200.43 944.34L220.21 953.57L229.44 958.85L251.86 969.4C256.26 966.76 256.26 963.69 251.86 960.17C247.47 956.65 242.19 951.38 236.04 944.34L226.8 933.79C228.56 931.15 228.12 928.95 225.49 927.2C222.85 925.44 214.05 921.48 199.11 915.33L212.3 915.33L226.8 915.33L228.12 896.86L236.04 896.86L228.12 869.16C229.88 868.28 232.96 868.28 237.36 869.16C243.95 870.48 259.78 875.9 259.78 868.58C259.78 863.69 258.46 859.05 255.82 854.66L242.63 854.66L245.27 844.1L251.86 844.1C255.38 841.47 256.7 838.83 255.82 836.19C254.5 832.23 246.59 829.6 254.5 832.23C262.41 834.87 267.69 830.11 270.33 831.17C272.09 831.88 276.04 816.41 282.2 784.75L293.9 786.96L298.03 767.61Z" />
					</g>
					<g id="&lt;Group&gt;">
						<path id="&lt;Path&gt;" class="shp0" d="M111.58 892.05L118.48 914.21L127.66 909.47C133.91 941.62 137.93 957.33 139.72 956.62C142.39 955.54 147.75 960.37 155.79 957.69C163.83 955.01 155.79 957.69 154.45 961.71C153.56 964.39 154.9 967.07 158.47 969.75L165.17 969.75L167.85 980.47L154.45 980.47C151.77 984.93 150.43 989.65 150.43 994.61C150.43 1002.05 166.51 996.54 173.21 995.2C177.67 994.31 180.8 994.31 182.58 995.2L174.54 1023.33L182.58 1023.33L183.92 1042.09L198.66 1042.09L212.05 1042.09C196.87 1048.34 187.94 1052.36 185.26 1054.14C182.58 1055.93 182.14 1058.16 183.92 1060.84L174.54 1071.56C168.29 1078.7 162.93 1084.06 158.47 1087.63C154 1091.2 154 1094.33 158.47 1097.01L181.24 1086.29L190.62 1080.93L210.71 1071.56L204.02 1087.63C228.13 1081.38 238.84 1079.6 236.17 1082.27C233.49 1084.95 230.36 1091.2 226.79 1101.03C219.64 1107.28 212.05 1111.3 204.02 1113.08C191.96 1115.76 191.96 1126.48 186.6 1129.16C183.03 1130.95 178.56 1135.86 173.21 1143.89L183.92 1143.89L204.02 1143.89L183.92 1158.63L181.24 1166.67L174.54 1182.74C182.58 1178.28 187.94 1175.6 190.62 1174.71C194.64 1173.37 201.34 1174.71 204.02 1174.71C205.8 1174.71 211.61 1175.6 221.43 1177.38L249.56 1166.67L242.86 1172.03L248.22 1180.06L221.43 1194.8L210.71 1194.8L191.96 1209.53L175.88 1216.23L183.92 1229.63L197.32 1229.63L204.02 1237.67L217.41 1237.67L212.05 1252.4L190.62 1261.78L204.02 1271.15L214.73 1276.51L233.49 1271.15L218.75 1284.55L240.18 1299.29L240.18 1315.36L264.3 1326.08C255.37 1329.65 249.56 1331.88 246.88 1332.78C244.2 1333.67 234.38 1337.24 217.41 1343.49L204.02 1338.13C194.19 1343.49 185.71 1346.62 178.56 1347.51C171.42 1348.4 170.53 1352.42 175.88 1359.57L187.94 1364.93L204.02 1347.51C206.69 1352.87 206.69 1357.78 204.02 1362.25C201.34 1366.71 206.25 1368.94 218.75 1368.94L226.79 1381L245.54 1368.94L254.92 1368.94L272.33 1385.02L241.52 1398.41L228.13 1403.77L240.18 1413.15L268.31 1413.15L249.56 1422.53L236.17 1431.52L213.39 1431.52L204.02 1453.34L220.09 1453.34L213.39 1476.11L280.37 1488.17L241.52 1505.58L212.05 1496.2L212.05 1504.24L179.9 1521.66L165.17 1531.03L149.09 1521.66L127.66 1529.69L127.66 1593.99L111.58 1593.99L95.51 1593.99L95.51 1529.69L74.08 1521.66L58 1531.03L43.27 1521.66L11.12 1504.24L11.12 1496.2L-18.35 1505.58L-57.2 1488.17L9.78 1476.11L3.08 1453.34L19.15 1453.34L9.78 1431.52L-13 1431.52L-26.39 1422.53L-45.15 1413.15L-17.02 1413.15L-4.96 1403.77L-18.35 1398.41L-49.16 1385.02L-31.75 1368.94L-22.37 1368.94L-3.62 1381L4.42 1368.94C16.92 1368.94 21.83 1366.71 19.15 1362.25C16.47 1357.78 16.47 1352.87 19.15 1347.51L35.23 1364.93L47.28 1359.57C52.64 1352.42 51.75 1348.4 44.61 1347.51C37.46 1346.62 28.98 1343.49 19.15 1338.13L5.76 1343.49C-11.21 1337.24 -21.03 1333.67 -23.71 1332.78C-26.39 1331.88 -32.2 1329.65 -41.13 1326.08L-17.02 1315.36L-17.02 1299.29L4.42 1284.55L-10.32 1271.15L8.44 1276.51L19.15 1271.15L32.55 1261.78L11.12 1252.4L5.76 1237.67L19.15 1237.67L25.85 1229.63L39.25 1229.63L47.28 1216.23L31.21 1209.53L12.46 1194.8L1.74 1194.8L-25.05 1180.06L-19.69 1172.03L-26.39 1166.67L1.74 1177.38C11.56 1175.6 17.37 1174.71 19.15 1174.71C21.83 1174.71 28.53 1173.37 32.55 1174.71C35.23 1175.6 40.59 1178.28 48.62 1182.74L41.93 1166.67L39.25 1158.63L19.15 1143.89L39.25 1143.89L49.96 1143.89C44.61 1135.86 40.14 1130.95 36.57 1129.16C31.21 1126.48 31.21 1115.76 19.15 1113.08C11.12 1111.3 3.53 1107.28 -3.62 1101.03C-7.19 1091.2 -10.32 1084.95 -13 1082.27C-15.68 1079.6 -4.96 1081.38 19.15 1087.63L12.46 1071.56L32.55 1080.93L41.93 1086.29L64.7 1097.01C69.16 1094.33 69.16 1091.2 64.7 1087.63C60.23 1084.06 54.88 1078.7 48.62 1071.56L39.25 1060.84C41.03 1058.16 40.59 1055.93 37.91 1054.14C35.23 1052.36 26.3 1048.34 11.12 1042.09L24.51 1042.09L39.25 1042.09L40.59 1023.33L48.62 1023.33L40.59 995.2C42.37 994.31 45.5 994.31 49.96 995.2C56.66 996.54 72.74 1002.05 72.74 994.61C72.74 989.65 71.4 984.93 68.72 980.47L55.32 980.47L58 969.75L64.7 969.75C68.27 967.07 69.61 964.39 68.72 961.71C67.38 957.69 59.34 955.01 67.38 957.69C75.42 960.37 80.77 955.54 83.45 956.62C85.24 957.33 89.26 941.62 95.51 909.47L107.4 911.71L111.58 892.05Z" />
					</g>
					<g id="&lt;Group&gt;">
						<path id="&lt;Path&gt;" class="shp0" d="M454.93 960.09L460.07 976.58L466.89 973.05C471.55 996.98 474.54 1008.68 475.87 1008.14C477.86 1007.34 481.85 1010.94 487.83 1008.95C493.81 1006.95 487.83 1008.95 486.83 1011.94C486.17 1013.93 487.17 1015.92 489.83 1017.92L494.81 1017.92L496.8 1025.89L486.83 1025.89C484.84 1029.22 483.84 1032.73 483.84 1036.42C483.84 1041.96 495.81 1037.86 500.79 1036.86C504.12 1036.2 506.44 1036.2 507.77 1036.86L501.79 1057.8L507.77 1057.8L508.77 1071.76L519.74 1071.76L529.71 1071.76C518.41 1076.41 511.76 1079.4 509.77 1080.73C507.77 1082.06 507.44 1083.72 508.77 1085.72L501.79 1093.69C497.14 1099.01 493.15 1103 489.83 1105.66C486.5 1108.31 486.5 1110.64 489.83 1112.63L506.77 1104.66L513.75 1100.67L528.71 1093.69L523.72 1105.66C541.67 1101 549.65 1099.67 547.65 1101.67C545.66 1103.66 543.33 1108.31 540.67 1115.63C535.36 1120.28 529.71 1123.27 523.72 1124.6C514.75 1126.59 514.75 1134.57 510.76 1136.56C508.1 1137.89 504.78 1141.55 500.79 1147.53L508.77 1147.53L523.72 1147.53L508.77 1158.5L506.77 1164.48L501.79 1176.44C507.77 1173.12 511.76 1171.13 513.75 1170.46C516.74 1169.46 521.73 1170.46 523.72 1170.46C525.05 1170.46 529.37 1171.13 536.68 1172.46L557.62 1164.48L552.64 1168.47L556.63 1174.45L536.68 1185.42L528.71 1185.42L514.75 1196.38L502.79 1201.37L508.77 1211.34L518.74 1211.34L523.72 1217.32L533.69 1217.32L529.71 1228.29L513.75 1235.27L523.72 1242.25L531.7 1246.23L545.66 1242.25L534.69 1252.22L550.64 1263.18L550.64 1275.15L568.59 1283.12C561.94 1285.78 557.62 1287.44 555.63 1288.11C553.63 1288.77 546.32 1291.43 533.69 1296.09L523.72 1292.1C516.41 1296.09 510.1 1298.41 504.78 1299.08C499.46 1299.74 498.8 1302.73 502.79 1308.05L511.76 1312.04L523.72 1299.08C525.72 1303.06 525.72 1306.72 523.72 1310.04C521.73 1313.37 525.39 1315.03 534.69 1315.03L540.67 1324L554.63 1315.03L561.61 1315.03L574.57 1326.99L551.64 1336.96L541.67 1340.95L550.64 1347.93L571.58 1347.93L557.62 1354.91L547.65 1361.61L530.7 1361.61L523.72 1377.84L535.69 1377.84L530.7 1394.79L580.55 1403.76L551.64 1416.72L529.71 1409.74L529.71 1415.73L505.78 1428.69L494.81 1435.67L482.85 1428.69L466.89 1434.67L466.89 1482.53L454.93 1482.53L442.97 1482.53L442.97 1434.67L427.01 1428.69L415.05 1435.67L404.08 1428.69L380.15 1415.73L380.15 1409.74L358.22 1416.72L329.31 1403.76L379.16 1394.79L374.17 1377.84L386.14 1377.84L379.16 1361.61L362.21 1361.61L352.24 1354.91L338.28 1347.93L359.22 1347.93L368.19 1340.95L358.22 1336.96L335.29 1326.99L348.25 1315.03L355.23 1315.03L369.19 1324L375.17 1315.03C384.47 1315.03 388.13 1313.37 386.14 1310.04C384.14 1306.72 384.14 1303.06 386.14 1299.08L398.1 1312.04L407.07 1308.05C411.06 1302.73 410.4 1299.74 405.08 1299.08C399.76 1298.41 393.45 1296.09 386.14 1292.1L376.17 1296.09C363.54 1291.43 356.23 1288.77 354.23 1288.11C352.24 1287.44 347.92 1285.78 341.27 1283.12L359.22 1275.15L359.22 1263.18L375.17 1252.22L364.2 1242.25L378.16 1246.23L386.14 1242.25L396.11 1235.27L380.15 1228.29L376.17 1217.32L386.14 1217.32L391.12 1211.34L401.09 1211.34L407.07 1201.37L395.11 1196.38L381.15 1185.42L373.17 1185.42L353.23 1174.45L357.22 1168.47L352.24 1164.48L373.17 1172.46C380.49 1171.13 384.81 1170.46 386.14 1170.46C388.13 1170.46 393.11 1169.46 396.11 1170.46C398.1 1171.13 402.09 1173.12 408.07 1176.44L403.08 1164.48L401.09 1158.5L386.14 1147.53L401.09 1147.53L409.07 1147.53C405.08 1141.55 401.76 1137.89 399.1 1136.56C395.11 1134.57 395.11 1126.59 386.14 1124.6C380.15 1123.27 374.5 1120.28 369.19 1115.63C366.53 1108.31 364.2 1103.66 362.21 1101.67C360.21 1099.67 368.19 1101 386.14 1105.66L381.15 1093.69L396.11 1100.67L403.08 1104.66L420.03 1112.63C423.36 1110.64 423.36 1108.31 420.03 1105.66C416.71 1103 412.72 1099.01 408.07 1093.69L401.09 1085.72C402.42 1083.72 402.09 1082.06 400.09 1080.73C398.1 1079.4 391.45 1076.41 380.15 1071.76L390.12 1071.76L401.09 1071.76L402.09 1057.8L408.07 1057.8L402.09 1036.86C403.42 1036.2 405.74 1036.2 409.07 1036.86C414.05 1037.86 426.02 1041.96 426.02 1036.42C426.02 1032.73 425.02 1029.22 423.03 1025.89L413.06 1025.89L415.05 1017.92L420.03 1017.92C422.69 1015.92 423.69 1013.93 423.03 1011.94C422.03 1008.95 416.05 1006.95 422.03 1008.95C428.01 1010.94 432 1007.34 433.99 1008.14C435.32 1008.68 438.31 996.98 442.97 973.05L451.81 974.72L454.93 960.09Z" />
					</g>
					<g id="&lt;Group&gt;">
						<path id="&lt;Path&gt;" class="shp0" d="M1997.26 1055.67L1999.5 1062.87L2002.48 1061.33C2004.51 1071.78 2005.82 1076.88 2006.4 1076.65C2007.27 1076.3 2009.01 1077.87 2011.62 1077C2014.23 1076.13 2011.62 1077 2011.19 1078.31C2010.9 1079.18 2011.33 1080.05 2012.49 1080.92L2014.67 1080.92L2015.54 1084.4L2011.19 1084.4C2010.32 1085.85 2009.88 1087.38 2009.88 1088.99C2009.88 1091.41 2015.1 1089.62 2017.28 1089.19C2018.73 1088.9 2019.75 1088.9 2020.33 1089.19L2017.71 1098.33L2020.33 1098.33L2020.76 1104.42L2025.55 1104.42L2029.9 1104.42C2024.97 1106.45 2022.07 1107.76 2021.2 1108.34C2020.33 1108.92 2020.18 1109.65 2020.76 1110.52L2017.71 1114C2015.68 1116.32 2013.94 1118.06 2012.49 1119.22C2011.04 1120.38 2011.04 1121.4 2012.49 1122.27L2019.89 1118.79L2022.94 1117.04L2029.47 1114L2027.29 1119.22C2035.13 1117.19 2038.61 1116.61 2037.74 1117.48C2036.87 1118.35 2035.85 1120.38 2034.69 1123.57C2032.37 1125.61 2029.9 1126.91 2027.29 1127.49C2023.37 1128.36 2023.37 1131.84 2021.63 1132.71C2020.47 1133.29 2019.02 1134.89 2017.28 1137.5L2020.76 1137.5L2027.29 1137.5L2020.76 1142.29L2019.89 1144.9L2017.71 1150.13C2020.33 1148.67 2022.07 1147.8 2022.94 1147.51C2024.24 1147.08 2026.42 1147.51 2027.29 1147.51C2027.87 1147.51 2029.76 1147.8 2032.95 1148.38L2042.09 1144.9L2039.91 1146.64L2041.65 1149.26L2032.95 1154.04L2029.47 1154.04L2023.37 1158.83L2018.15 1161.01L2020.76 1165.36L2025.11 1165.36L2027.29 1167.97L2031.64 1167.97L2029.9 1172.76L2022.94 1175.81L2027.29 1178.85L2030.77 1180.59L2036.87 1178.85L2032.08 1183.21L2039.04 1187.99L2039.04 1193.22L2046.88 1196.7C2043.98 1197.86 2042.09 1198.59 2041.22 1198.88C2040.35 1199.17 2037.16 1200.33 2031.64 1202.36L2027.29 1200.62C2024.1 1202.36 2021.34 1203.37 2019.02 1203.66C2016.7 1203.95 2016.41 1205.26 2018.15 1207.58L2022.07 1209.32L2027.29 1203.66C2028.16 1205.41 2028.16 1207 2027.29 1208.45C2026.42 1209.9 2028.02 1210.63 2032.08 1210.63L2034.69 1214.55L2040.78 1210.63L2043.83 1210.63L2049.49 1215.85L2039.48 1220.2L2035.13 1221.95L2039.04 1224.99L2048.18 1224.99L2042.09 1228.04L2037.74 1230.96L2030.34 1230.96L2027.29 1238.05L2032.51 1238.05L2030.34 1245.45L2052.1 1249.37L2039.48 1255.03L2029.9 1251.98L2029.9 1254.59L2019.46 1260.25L2014.67 1263.3L2009.44 1260.25L2002.48 1262.86L2002.48 1336.5L1997.26 1336.5L1992.03 1336.5L1992.03 1262.86L1985.07 1260.25L1979.85 1263.3L1975.06 1260.25L1964.61 1254.59L1964.61 1251.98L1955.04 1255.03L1942.41 1249.37L1964.18 1245.45L1962 1238.05L1967.22 1238.05L1964.18 1230.96L1956.78 1230.96L1952.42 1228.04L1946.33 1224.99L1955.47 1224.99L1959.39 1221.95L1955.04 1220.2L1945.02 1215.85L1950.68 1210.63L1953.73 1210.63L1959.82 1214.55L1962.44 1210.63C1966.5 1210.63 1968.09 1209.9 1967.22 1208.45C1966.35 1207 1966.35 1205.41 1967.22 1203.66L1972.45 1209.32L1976.36 1207.58C1978.11 1205.26 1977.81 1203.95 1975.49 1203.66C1973.17 1203.37 1970.42 1202.36 1967.22 1200.62L1962.87 1202.36C1957.36 1200.33 1954.16 1199.17 1953.29 1198.88C1952.42 1198.59 1950.54 1197.86 1947.64 1196.7L1955.47 1193.22L1955.47 1187.99L1962.44 1183.21L1957.65 1178.85L1963.74 1180.59L1967.22 1178.85L1971.58 1175.81L1964.61 1172.76L1962.87 1167.97L1967.22 1167.97L1969.4 1165.36L1973.75 1165.36L1976.36 1161.01L1971.14 1158.83L1965.05 1154.04L1961.56 1154.04L1952.86 1149.26L1954.6 1146.64L1952.42 1144.9L1961.56 1148.38C1964.76 1147.8 1966.64 1147.51 1967.22 1147.51C1968.09 1147.51 1970.27 1147.08 1971.58 1147.51C1972.45 1147.8 1974.19 1148.67 1976.8 1150.13L1974.62 1144.9L1973.75 1142.29L1967.22 1137.5L1973.75 1137.5L1977.23 1137.5C1975.49 1134.89 1974.04 1133.29 1972.88 1132.71C1971.14 1131.84 1971.14 1128.36 1967.22 1127.49C1964.61 1126.91 1962.14 1125.61 1959.82 1123.57C1958.66 1120.38 1957.65 1118.35 1956.78 1117.48C1955.91 1116.61 1959.39 1117.19 1967.22 1119.22L1965.05 1114L1971.58 1117.04L1974.62 1118.79L1982.02 1122.27C1983.47 1121.4 1983.47 1120.38 1982.02 1119.22C1980.57 1118.06 1978.83 1116.32 1976.8 1114L1973.75 1110.52C1974.33 1109.65 1974.19 1108.92 1973.32 1108.34C1972.45 1107.76 1969.54 1106.45 1964.61 1104.42L1968.96 1104.42L1973.75 1104.42L1974.19 1098.33L1976.8 1098.33L1974.19 1089.19C1974.77 1088.9 1975.78 1088.9 1977.23 1089.19C1979.41 1089.62 1984.63 1091.41 1984.63 1088.99C1984.63 1087.38 1984.2 1085.85 1983.33 1084.4L1978.98 1084.4L1979.85 1080.92L1982.02 1080.92C1983.18 1080.05 1983.62 1079.18 1983.33 1078.31C1982.89 1077 1980.28 1076.13 1982.89 1077C1985.5 1077.87 1987.25 1076.3 1988.12 1076.65C1988.7 1076.88 1990 1071.78 1992.03 1061.33L1995.9 1062.06L1997.26 1055.67Z" />
					</g>
					<g id="&lt;Group&gt;">
						<path id="&lt;Path&gt;" class="shp0" d="M2272.07 926.53L2274.17 933.27L2276.96 931.82C2278.86 941.6 2280.08 946.38 2280.63 946.16C2281.44 945.83 2283.07 947.3 2285.51 946.48C2287.96 945.67 2285.51 946.48 2285.11 947.71C2284.83 948.52 2285.24 949.33 2286.33 950.15L2288.36 950.15L2289.18 953.41L2285.11 953.41C2284.29 954.76 2283.88 956.2 2283.88 957.71C2283.88 959.97 2288.77 958.29 2290.81 957.89C2292.16 957.62 2293.12 957.62 2293.66 957.89L2291.21 966.44L2293.66 966.44L2294.07 972.14L2298.55 972.14L2302.62 972.14C2298 974.04 2295.29 975.26 2294.47 975.81C2293.66 976.35 2293.52 977.03 2294.07 977.84L2291.21 981.1C2289.31 983.27 2287.69 984.9 2286.33 985.99C2284.97 987.07 2284.97 988.02 2286.33 988.84L2293.25 985.58L2296.1 983.95L2302.21 981.1L2300.17 985.99C2307.5 984.09 2310.76 983.54 2309.95 984.36C2309.13 985.17 2308.18 987.07 2307.1 990.06C2304.93 991.96 2302.62 993.18 2300.17 993.72C2296.51 994.54 2296.51 997.8 2294.88 998.61C2293.79 999.15 2292.44 1000.65 2290.81 1003.09L2294.07 1003.09L2300.17 1003.09L2294.07 1007.57L2293.25 1010.01L2291.21 1014.9C2293.66 1013.54 2295.29 1012.73 2296.1 1012.46C2297.32 1012.05 2299.36 1012.46 2300.17 1012.46C2300.72 1012.46 2302.48 1012.73 2305.47 1013.27L2314.02 1010.01L2311.98 1011.64L2313.61 1014.09L2305.47 1018.57L2302.21 1018.57L2296.51 1023.05L2291.62 1025.08L2294.07 1029.15L2298.14 1029.15L2300.17 1031.6L2304.25 1031.6L2302.62 1036.08L2296.1 1038.93L2300.17 1041.78L2303.43 1043.41L2309.13 1041.78L2304.65 1045.85L2311.17 1050.33L2311.17 1055.22L2318.5 1058.48C2315.78 1059.56 2314.02 1060.24 2313.21 1060.51C2312.39 1060.78 2309.4 1061.87 2304.25 1063.77L2300.17 1062.14C2297.19 1063.77 2294.61 1064.72 2292.44 1064.99C2290.26 1065.26 2289.99 1066.48 2291.62 1068.66L2295.29 1070.29L2300.17 1064.99C2300.99 1066.62 2300.99 1068.11 2300.17 1069.47C2299.36 1070.83 2300.85 1071.51 2304.65 1071.51L2307.1 1075.17L2312.8 1071.51L2315.65 1071.51L2320.94 1076.39L2311.58 1080.47L2307.5 1082.1L2311.17 1084.95L2319.72 1084.95L2314.02 1087.8L2309.95 1090.53L2303.02 1090.53L2300.17 1097.16L2305.06 1097.16L2303.02 1104.09L2323.39 1107.75L2311.58 1113.05L2302.62 1110.19L2302.62 1112.64L2292.84 1117.93L2288.36 1120.78L2283.48 1117.93L2276.96 1120.38L2276.96 1173.37L2272.07 1173.37L2267.19 1173.37L2267.19 1120.38L2260.67 1117.93L2255.78 1120.78L2251.31 1117.93L2241.53 1112.64L2241.53 1110.19L2232.57 1113.05L2220.76 1107.75L2241.12 1104.09L2239.09 1097.16L2243.97 1097.16L2241.12 1090.53L2234.2 1090.53L2230.13 1087.8L2224.43 1084.95L2232.98 1084.95L2236.64 1082.1L2232.57 1080.47L2223.21 1076.39L2228.5 1071.51L2231.35 1071.51L2237.05 1075.17L2239.5 1071.51C2243.3 1071.51 2244.79 1070.83 2243.97 1069.47C2243.16 1068.11 2243.16 1066.62 2243.97 1064.99L2248.86 1070.29L2252.53 1068.66C2254.16 1066.48 2253.88 1065.26 2251.71 1064.99C2249.54 1064.72 2246.96 1063.77 2243.97 1062.14L2239.9 1063.77C2234.74 1061.87 2231.76 1060.78 2230.94 1060.51C2230.13 1060.24 2228.36 1059.56 2225.65 1058.48L2232.98 1055.22L2232.98 1050.33L2239.5 1045.85L2235.02 1041.78L2240.72 1043.41L2243.97 1041.78L2248.05 1038.93L2241.53 1036.08L2239.9 1031.6L2243.97 1031.6L2246.01 1029.15L2250.08 1029.15L2252.53 1025.08L2247.64 1023.05L2241.94 1018.57L2238.68 1018.57L2230.54 1014.09L2232.16 1011.64L2230.13 1010.01L2238.68 1013.27C2241.67 1012.73 2243.43 1012.46 2243.97 1012.46C2244.79 1012.46 2246.83 1012.05 2248.05 1012.46C2248.86 1012.73 2250.49 1013.54 2252.93 1014.9L2250.9 1010.01L2250.08 1007.57L2243.97 1003.09L2250.08 1003.09L2253.34 1003.09C2251.71 1000.65 2250.35 999.15 2249.27 998.61C2247.64 997.8 2247.64 994.54 2243.97 993.72C2241.53 993.18 2239.22 991.96 2237.05 990.06C2235.97 987.07 2235.02 985.17 2234.2 984.36C2233.39 983.54 2236.64 984.09 2243.97 985.99L2241.94 981.1L2248.05 983.95L2250.9 985.58L2257.82 988.84C2259.18 988.02 2259.18 987.07 2257.82 985.99C2256.46 984.9 2254.83 983.27 2252.93 981.1L2250.08 977.84C2250.63 977.03 2250.49 976.35 2249.68 975.81C2248.86 975.26 2246.15 974.04 2241.53 972.14L2245.6 972.14L2250.08 972.14L2250.49 966.44L2252.93 966.44L2250.49 957.89C2251.03 957.62 2251.98 957.62 2253.34 957.89C2255.38 958.29 2260.26 959.97 2260.26 957.71C2260.26 956.2 2259.86 954.76 2259.04 953.41L2254.97 953.41L2255.78 950.15L2257.82 950.15C2258.91 949.33 2259.31 948.52 2259.04 947.71C2258.64 946.48 2256.19 945.67 2258.64 946.48C2261.08 947.3 2262.71 945.83 2263.52 946.16C2264.07 946.38 2265.29 941.6 2267.19 931.82L2270.8 932.5L2272.07 926.53Z" />
					</g>
					<g id="&lt;Group&gt;">
						<path id="&lt;Path&gt;" class="shp0" d="M2220.76 975.98L2222.86 982.72L2225.65 981.27C2227.55 991.05 2228.77 995.82 2229.31 995.61C2230.13 995.28 2231.76 996.75 2234.2 995.93C2236.64 995.12 2234.2 995.93 2233.79 997.16C2233.52 997.97 2233.93 998.78 2235.02 999.6L2237.05 999.6L2237.87 1002.86L2233.79 1002.86C2232.98 1004.21 2232.57 1005.65 2232.57 1007.16C2232.57 1009.42 2237.46 1007.74 2239.5 1007.34C2240.85 1007.07 2241.8 1007.07 2242.35 1007.34L2239.9 1015.89L2242.35 1015.89L2242.75 1021.59L2247.23 1021.59L2251.31 1021.59C2246.69 1023.49 2243.97 1024.71 2243.16 1025.26C2242.35 1025.8 2242.21 1026.48 2242.75 1027.29L2239.9 1030.55C2238 1032.72 2236.37 1034.35 2235.02 1035.44C2233.66 1036.52 2233.66 1037.47 2235.02 1038.29L2241.94 1035.03L2244.79 1033.4L2250.9 1030.55L2248.86 1035.44C2256.19 1033.54 2259.45 1032.99 2258.64 1033.81C2257.82 1034.62 2256.87 1036.52 2255.78 1039.51C2253.61 1041.41 2251.31 1042.63 2248.86 1043.17C2245.2 1043.99 2245.2 1047.25 2243.57 1048.06C2242.48 1048.6 2241.12 1050.1 2239.5 1052.54L2242.75 1052.54L2248.86 1052.54L2242.75 1057.02L2241.94 1059.46L2239.9 1064.35C2242.35 1062.99 2243.97 1062.18 2244.79 1061.91C2246.01 1061.5 2248.05 1061.91 2248.86 1061.91C2249.4 1061.91 2251.17 1062.18 2254.16 1062.72L2262.71 1059.46L2260.67 1061.09L2262.3 1063.54L2254.16 1068.02L2250.9 1068.02L2245.2 1072.5L2240.31 1074.53L2242.75 1078.6L2246.83 1078.6L2248.86 1081.05L2252.93 1081.05L2251.31 1085.53L2244.79 1088.38L2248.86 1091.23L2252.12 1092.86L2257.82 1091.23L2253.34 1095.3L2259.86 1099.78L2259.86 1104.67L2267.19 1107.93C2264.47 1109.01 2262.71 1109.69 2261.89 1109.96C2261.08 1110.23 2258.09 1111.32 2252.93 1113.22L2248.86 1111.59C2245.88 1113.22 2243.3 1114.17 2241.12 1114.44C2238.95 1114.71 2238.68 1115.93 2240.31 1118.11L2243.97 1119.74L2248.86 1114.44C2249.68 1116.07 2249.68 1117.56 2248.86 1118.92C2248.05 1120.28 2249.54 1120.96 2253.34 1120.96L2255.78 1124.62L2261.49 1120.96L2264.34 1120.96L2269.63 1125.84L2260.26 1129.92L2256.19 1131.55L2259.86 1134.4L2268.41 1134.4L2262.71 1137.25L2258.64 1139.98L2251.71 1139.98L2248.86 1146.61L2253.75 1146.61L2251.71 1153.54L2272.07 1157.2L2260.26 1162.5L2251.31 1159.64L2251.31 1162.09L2241.53 1167.38L2237.05 1170.23L2232.16 1167.38L2225.65 1169.83L2225.65 1222.82L2220.76 1222.82L2215.88 1222.82L2215.88 1169.83L2209.36 1167.38L2204.47 1170.23L2199.99 1167.38L2190.22 1162.09L2190.22 1159.64L2181.26 1162.5L2169.45 1157.2L2189.81 1153.54L2187.78 1146.61L2192.66 1146.61L2189.81 1139.98L2182.89 1139.98L2178.82 1137.25L2173.11 1134.4L2181.67 1134.4L2185.33 1131.55L2181.26 1129.92L2171.89 1125.84L2177.19 1120.96L2180.04 1120.96L2185.74 1124.62L2188.18 1120.96C2191.98 1120.96 2193.48 1120.28 2192.66 1118.92C2191.85 1117.56 2191.85 1116.07 2192.66 1114.44L2197.55 1119.74L2201.21 1118.11C2202.84 1115.93 2202.57 1114.71 2200.4 1114.44C2198.23 1114.17 2195.65 1113.22 2192.66 1111.59L2188.59 1113.22C2183.43 1111.32 2180.45 1110.23 2179.63 1109.96C2178.82 1109.69 2177.05 1109.01 2174.34 1107.93L2181.67 1104.67L2181.67 1099.78L2188.18 1095.3L2183.7 1091.23L2189.4 1092.86L2192.66 1091.23L2196.73 1088.38L2190.22 1085.53L2188.59 1081.05L2192.66 1081.05L2194.7 1078.6L2198.77 1078.6L2201.21 1074.53L2196.33 1072.5L2190.63 1068.02L2187.37 1068.02L2179.22 1063.54L2180.85 1061.09L2178.82 1059.46L2187.37 1062.72C2190.35 1062.18 2192.12 1061.91 2192.66 1061.91C2193.48 1061.91 2195.51 1061.5 2196.73 1061.91C2197.55 1062.18 2199.18 1062.99 2201.62 1064.35L2199.59 1059.46L2198.77 1057.02L2192.66 1052.54L2198.77 1052.54L2202.03 1052.54C2200.4 1050.1 2199.04 1048.6 2197.96 1048.06C2196.33 1047.25 2196.33 1043.99 2192.66 1043.17C2190.22 1042.63 2187.91 1041.41 2185.74 1039.51C2184.65 1036.52 2183.7 1034.62 2182.89 1033.81C2182.07 1032.99 2185.33 1033.54 2192.66 1035.44L2190.63 1030.55L2196.73 1033.4L2199.59 1035.03L2206.51 1038.29C2207.87 1037.47 2207.87 1036.52 2206.51 1035.44C2205.15 1034.35 2203.52 1032.72 2201.62 1030.55L2198.77 1027.29C2199.31 1026.48 2199.18 1025.8 2198.36 1025.26C2197.55 1024.71 2194.83 1023.49 2190.22 1021.59L2194.29 1021.59L2198.77 1021.59L2199.18 1015.89L2201.62 1015.89L2199.18 1007.34C2199.72 1007.07 2200.67 1007.07 2202.03 1007.34C2204.07 1007.74 2208.95 1009.42 2208.95 1007.16C2208.95 1005.65 2208.54 1004.21 2207.73 1002.86L2203.66 1002.86L2204.47 999.6L2206.51 999.6C2207.59 998.78 2208 997.97 2207.73 997.16C2207.32 995.93 2204.88 995.12 2207.32 995.93C2209.77 996.75 2211.4 995.28 2212.21 995.61C2212.75 995.82 2213.97 991.05 2215.88 981.27L2219.49 981.95L2220.76 975.98Z" />
					</g>
					<g id="&lt;Group&gt;">
						<path id="&lt;Path&gt;" class="shp0" d="M1759.36 1136.68L1761.17 1142.48L1763.57 1141.24C1765.2 1149.66 1766.26 1153.77 1766.72 1153.58C1767.43 1153.3 1768.83 1154.57 1770.93 1153.86C1773.04 1153.16 1770.93 1153.86 1770.58 1154.92C1770.35 1155.62 1770.7 1156.32 1771.63 1157.02L1773.39 1157.02L1774.09 1159.83L1770.58 1159.83C1769.88 1160.99 1769.53 1162.23 1769.53 1163.53C1769.53 1165.48 1773.74 1164.03 1775.49 1163.68C1776.66 1163.45 1777.48 1163.45 1777.95 1163.68L1775.84 1171.05L1777.95 1171.05L1778.3 1175.96L1782.15 1175.96L1785.66 1175.96C1781.69 1177.59 1779.35 1178.64 1778.65 1179.11C1777.95 1179.58 1777.83 1180.16 1778.3 1180.87L1775.84 1183.67C1774.21 1185.54 1772.8 1186.94 1771.63 1187.88C1770.46 1188.81 1770.46 1189.63 1771.63 1190.33L1777.6 1187.53L1780.05 1186.13L1785.31 1183.67L1783.56 1187.88C1789.87 1186.24 1792.67 1185.78 1791.97 1186.48C1791.27 1187.18 1790.45 1188.81 1789.52 1191.39C1787.65 1193.02 1785.66 1194.07 1783.56 1194.54C1780.4 1195.24 1780.4 1198.05 1779 1198.75C1778.06 1199.22 1776.89 1200.5 1775.49 1202.61L1778.3 1202.61L1783.56 1202.61L1778.3 1206.46L1777.6 1208.57L1775.84 1212.78C1777.95 1211.61 1779.35 1210.91 1780.05 1210.67C1781.1 1210.32 1782.86 1210.67 1783.56 1210.67C1784.02 1210.67 1785.54 1210.91 1788.12 1211.37L1795.48 1208.57L1793.73 1209.97L1795.13 1212.08L1788.12 1215.93L1785.31 1215.93L1780.4 1219.79L1776.19 1221.54L1778.3 1225.05L1781.8 1225.05L1783.56 1227.15L1787.06 1227.15L1785.66 1231.01L1780.05 1233.47L1783.56 1235.92L1786.36 1237.32L1791.27 1235.92L1787.41 1239.43L1793.02 1243.28L1793.02 1247.49L1799.34 1250.3C1797 1251.23 1795.48 1251.82 1794.78 1252.05C1794.08 1252.29 1791.51 1253.22 1787.06 1254.86L1783.56 1253.45C1780.98 1254.86 1778.76 1255.67 1776.89 1255.91C1775.02 1256.14 1774.79 1257.19 1776.19 1259.06L1779.35 1260.47L1783.56 1255.91C1784.26 1257.31 1784.26 1258.6 1783.56 1259.77C1782.86 1260.94 1784.14 1261.52 1787.41 1261.52L1789.52 1264.68L1794.43 1261.52L1796.88 1261.52L1801.44 1265.73L1793.38 1269.23L1789.87 1270.64L1793.02 1273.09L1800.39 1273.09L1795.48 1275.55L1791.97 1277.9L1786.01 1277.9L1783.56 1283.61L1787.76 1283.61L1786.01 1289.57L1803.54 1292.73L1793.38 1297.29L1785.66 1294.83L1785.66 1296.94L1777.24 1301.5L1773.39 1303.95L1769.18 1301.5L1763.57 1303.6L1763.57 1349.24L1759.36 1349.24L1755.15 1349.24L1755.15 1303.6L1749.54 1301.5L1745.33 1303.95L1741.48 1301.5L1733.06 1296.94L1733.06 1294.83L1725.35 1297.29L1715.18 1292.73L1732.71 1289.57L1730.96 1283.61L1735.16 1283.61L1732.71 1277.9L1726.75 1277.9L1723.24 1275.55L1718.33 1273.09L1725.7 1273.09L1728.85 1270.64L1725.35 1269.23L1717.28 1265.73L1721.84 1261.52L1724.29 1261.52L1729.2 1264.68L1731.31 1261.52C1734.58 1261.52 1735.87 1260.94 1735.16 1259.77C1734.46 1258.6 1734.46 1257.31 1735.16 1255.91L1739.37 1260.47L1742.53 1259.06C1743.93 1257.19 1743.7 1256.14 1741.83 1255.91C1739.96 1255.67 1737.74 1254.86 1735.16 1253.45L1731.66 1254.86C1727.22 1253.22 1724.64 1252.29 1723.94 1252.05C1723.24 1251.82 1721.72 1251.23 1719.38 1250.3L1725.7 1247.49L1725.7 1243.28L1731.31 1239.43L1727.45 1235.92L1732.36 1237.32L1735.16 1235.92L1738.67 1233.47L1733.06 1231.01L1731.66 1227.15L1735.16 1227.15L1736.92 1225.05L1740.42 1225.05L1742.53 1221.54L1738.32 1219.79L1733.41 1215.93L1730.61 1215.93L1723.59 1212.08L1724.99 1209.97L1723.24 1208.57L1730.61 1211.37C1733.18 1210.91 1734.7 1210.67 1735.16 1210.67C1735.87 1210.67 1737.62 1210.32 1738.67 1210.67C1739.37 1210.91 1740.78 1211.61 1742.88 1212.78L1741.13 1208.57L1740.42 1206.46L1735.16 1202.61L1740.42 1202.61L1743.23 1202.61C1741.83 1200.5 1740.66 1199.22 1739.72 1198.75C1738.32 1198.05 1738.32 1195.24 1735.16 1194.54C1733.06 1194.07 1731.07 1193.02 1729.2 1191.39C1728.27 1188.81 1727.45 1187.18 1726.75 1186.48C1726.05 1185.78 1728.85 1186.24 1735.16 1187.88L1733.41 1183.67L1738.67 1186.13L1741.13 1187.53L1747.09 1190.33C1748.26 1189.63 1748.26 1188.81 1747.09 1187.88C1745.92 1186.94 1744.52 1185.54 1742.88 1183.67L1740.42 1180.87C1740.89 1180.16 1740.78 1179.58 1740.07 1179.11C1739.37 1178.64 1737.03 1177.59 1733.06 1175.96L1736.57 1175.96L1740.42 1175.96L1740.78 1171.05L1742.88 1171.05L1740.78 1163.68C1741.24 1163.45 1742.06 1163.45 1743.23 1163.68C1744.98 1164.03 1749.19 1165.48 1749.19 1163.53C1749.19 1162.23 1748.84 1160.99 1748.14 1159.83L1744.63 1159.83L1745.33 1157.02L1747.09 1157.02C1748.02 1156.32 1748.37 1155.62 1748.14 1154.92C1747.79 1153.86 1745.68 1153.16 1747.79 1153.86C1749.89 1154.57 1751.3 1153.3 1752 1153.58C1752.46 1153.77 1753.52 1149.66 1755.15 1141.24L1758.26 1141.83L1759.36 1136.68Z" />
					</g>
					<g id="&lt;Group&gt;">
						<path id="&lt;Path&gt;" class="shp0" d="M1715.18 1130.58L1716.98 1136.38L1719.38 1135.14C1721.02 1143.56 1722.07 1147.67 1722.54 1147.48C1723.24 1147.2 1724.64 1148.47 1726.75 1147.76C1728.85 1147.06 1726.75 1147.76 1726.4 1148.82C1726.16 1149.52 1726.51 1150.22 1727.45 1150.92L1729.2 1150.92L1729.9 1153.73L1726.4 1153.73C1725.7 1154.89 1725.35 1156.13 1725.35 1157.43C1725.35 1159.37 1729.55 1157.93 1731.31 1157.58C1732.48 1157.35 1733.29 1157.35 1733.76 1157.58L1731.66 1164.95L1733.76 1164.95L1734.11 1169.86L1737.97 1169.86L1741.48 1169.86C1737.5 1171.49 1735.16 1172.54 1734.46 1173.01C1733.76 1173.48 1733.64 1174.06 1734.11 1174.77L1731.66 1177.57C1730.02 1179.44 1728.62 1180.84 1727.45 1181.78C1726.28 1182.71 1726.28 1183.53 1727.45 1184.23L1733.41 1181.43L1735.87 1180.03L1741.13 1177.57L1739.37 1181.78C1745.68 1180.14 1748.49 1179.67 1747.79 1180.38C1747.09 1181.08 1746.27 1182.71 1745.33 1185.29C1743.46 1186.92 1741.48 1187.97 1739.37 1188.44C1736.22 1189.14 1736.22 1191.95 1734.81 1192.65C1733.88 1193.12 1732.71 1194.4 1731.31 1196.51L1734.11 1196.51L1739.37 1196.51L1734.11 1200.36L1733.41 1202.47L1731.66 1206.68C1733.76 1205.51 1735.16 1204.81 1735.87 1204.57C1736.92 1204.22 1738.67 1204.57 1739.37 1204.57C1739.84 1204.57 1741.36 1204.81 1743.93 1205.27L1751.3 1202.47L1749.54 1203.87L1750.94 1205.97L1743.93 1209.83L1741.13 1209.83L1736.22 1213.69L1732.01 1215.44L1734.11 1218.95L1737.62 1218.95L1739.37 1221.05L1742.88 1221.05L1741.48 1224.91L1735.87 1227.37L1739.37 1229.82L1742.18 1231.22L1747.09 1229.82L1743.23 1233.33L1748.84 1237.18L1748.84 1241.39L1755.15 1244.2C1752.81 1245.13 1751.3 1245.72 1750.59 1245.95C1749.89 1246.18 1747.32 1247.12 1742.88 1248.76L1739.37 1247.35C1736.8 1248.76 1734.58 1249.57 1732.71 1249.81C1730.84 1250.04 1730.61 1251.09 1732.01 1252.96L1735.16 1254.37L1739.37 1249.81C1740.07 1251.21 1740.07 1252.5 1739.37 1253.67C1738.67 1254.83 1739.96 1255.42 1743.23 1255.42L1745.33 1258.57L1750.24 1255.42L1752.7 1255.42L1757.26 1259.63L1749.19 1263.13L1745.68 1264.54L1748.84 1266.99L1756.2 1266.99L1751.3 1269.45L1747.79 1271.8L1741.83 1271.8L1739.37 1277.51L1743.58 1277.51L1741.83 1283.47L1759.36 1286.63L1749.19 1291.19L1741.48 1288.73L1741.48 1290.84L1733.06 1295.39L1729.2 1297.85L1724.99 1295.39L1719.38 1297.5L1719.38 1343.14L1715.18 1343.14L1710.97 1343.14L1710.97 1297.5L1705.36 1295.39L1701.15 1297.85L1697.29 1295.39L1688.88 1290.84L1688.88 1288.73L1681.16 1291.19L1670.99 1286.63L1688.53 1283.47L1686.77 1277.51L1690.98 1277.51L1688.53 1271.8L1682.56 1271.8L1679.06 1269.45L1674.15 1266.99L1681.51 1266.99L1684.67 1264.54L1681.16 1263.13L1673.1 1259.63L1677.65 1255.42L1680.11 1255.42L1685.02 1258.57L1687.12 1255.42C1690.4 1255.42 1691.68 1254.83 1690.98 1253.67C1690.28 1252.5 1690.28 1251.21 1690.98 1249.81L1695.19 1254.37L1698.34 1252.96C1699.75 1251.09 1699.51 1250.04 1697.64 1249.81C1695.77 1249.57 1693.55 1248.76 1690.98 1247.35L1687.47 1248.76C1683.03 1247.12 1680.46 1246.18 1679.76 1245.95C1679.06 1245.72 1677.54 1245.13 1675.2 1244.2L1681.51 1241.39L1681.51 1237.18L1687.12 1233.33L1683.27 1229.82L1688.17 1231.22L1690.98 1229.82L1694.49 1227.37L1688.88 1224.91L1687.47 1221.05L1690.98 1221.05L1692.73 1218.95L1696.24 1218.95L1698.34 1215.44L1694.14 1213.69L1689.23 1209.83L1686.42 1209.83L1679.41 1205.97L1680.81 1203.87L1679.06 1202.47L1686.42 1205.27C1688.99 1204.81 1690.51 1204.57 1690.98 1204.57C1691.68 1204.57 1693.43 1204.22 1694.49 1204.57C1695.19 1204.81 1696.59 1205.51 1698.69 1206.68L1696.94 1202.47L1696.24 1200.36L1690.98 1196.51L1696.24 1196.51L1699.05 1196.51C1697.64 1194.4 1696.47 1193.12 1695.54 1192.65C1694.14 1191.95 1694.14 1189.14 1690.98 1188.44C1688.88 1187.97 1686.89 1186.92 1685.02 1185.29C1684.08 1182.71 1683.27 1181.08 1682.56 1180.38C1681.86 1179.67 1684.67 1180.14 1690.98 1181.78L1689.23 1177.57L1694.49 1180.03L1696.94 1181.43L1702.9 1184.23C1704.07 1183.53 1704.07 1182.71 1702.9 1181.78C1701.73 1180.84 1700.33 1179.44 1698.69 1177.57L1696.24 1174.77C1696.71 1174.06 1696.59 1173.48 1695.89 1173.01C1695.19 1172.54 1692.85 1171.49 1688.88 1169.86L1692.38 1169.86L1696.24 1169.86L1696.59 1164.95L1698.69 1164.95L1696.59 1157.58C1697.06 1157.35 1697.88 1157.35 1699.05 1157.58C1700.8 1157.93 1705.01 1159.37 1705.01 1157.43C1705.01 1156.13 1704.66 1154.89 1703.95 1153.73L1700.45 1153.73L1701.15 1150.92L1702.9 1150.92C1703.84 1150.22 1704.19 1149.52 1703.95 1148.82C1703.6 1147.76 1701.5 1147.06 1703.6 1147.76C1705.71 1148.47 1707.11 1147.2 1707.81 1147.48C1708.28 1147.67 1709.33 1143.56 1710.97 1135.14L1714.08 1135.73L1715.18 1130.58Z" />
					</g>
					<g id="&lt;Group&gt;">
						<path id="&lt;Path&gt;" class="shp0" d="M2052.1 1095.4L2053.83 1100.96L2056.13 1099.77C2057.7 1107.84 2058.71 1111.78 2059.16 1111.6C2059.83 1111.33 2061.17 1112.54 2063.19 1111.87C2065.21 1111.2 2063.19 1111.87 2062.85 1112.88C2062.63 1113.55 2062.97 1114.22 2063.86 1114.89L2065.54 1114.89L2066.21 1117.58L2062.85 1117.58C2062.18 1118.7 2061.85 1119.88 2061.85 1121.13C2061.85 1122.99 2065.88 1121.61 2067.56 1121.28C2068.68 1121.05 2069.46 1121.05 2069.91 1121.28L2067.89 1128.33L2069.91 1128.33L2070.25 1133.04L2073.94 1133.04L2077.3 1133.04C2073.49 1134.61 2071.25 1135.61 2070.58 1136.06C2069.91 1136.51 2069.8 1137.07 2070.25 1137.74L2067.89 1140.43C2066.33 1142.22 2064.98 1143.57 2063.86 1144.46C2062.74 1145.36 2062.74 1146.14 2063.86 1146.81L2069.57 1144.13L2071.93 1142.78L2076.97 1140.43L2075.29 1144.46C2081.34 1142.89 2084.02 1142.45 2083.35 1143.12C2082.68 1143.79 2081.9 1145.36 2081 1147.82C2079.21 1149.39 2077.3 1150.4 2075.29 1150.85C2072.26 1151.52 2072.26 1154.21 2070.92 1154.88C2070.02 1155.33 2068.9 1156.56 2067.56 1158.57L2070.25 1158.57L2075.29 1158.57L2070.25 1162.27L2069.57 1164.29L2067.89 1168.32C2069.91 1167.2 2071.25 1166.53 2071.93 1166.3C2072.93 1165.97 2074.61 1166.3 2075.29 1166.3C2075.73 1166.3 2077.19 1166.53 2079.66 1166.97L2086.71 1164.29L2085.03 1165.63L2086.38 1167.65L2079.66 1171.34L2076.97 1171.34L2072.26 1175.04L2068.23 1176.72L2070.25 1180.08L2073.61 1180.08L2075.29 1182.1L2078.65 1182.1L2077.3 1185.79L2071.93 1188.14L2075.29 1190.5L2077.97 1191.84L2082.68 1190.5L2078.98 1193.86L2084.36 1197.55L2084.36 1201.59L2090.41 1204.27C2088.17 1205.17 2086.71 1205.73 2086.04 1205.95C2085.37 1206.18 2082.9 1207.07 2078.65 1208.64L2075.29 1207.3C2072.82 1208.64 2070.69 1209.43 2068.9 1209.65C2067.11 1209.87 2066.89 1210.88 2068.23 1212.67L2071.25 1214.02L2075.29 1209.65C2075.96 1210.99 2075.96 1212.23 2075.29 1213.35C2074.61 1214.47 2075.85 1215.03 2078.98 1215.03L2081 1218.05L2085.7 1215.03L2088.06 1215.03L2092.42 1219.06L2084.7 1222.42L2081.34 1223.76L2084.36 1226.11L2091.42 1226.11L2086.71 1228.47L2083.35 1230.72L2077.64 1230.72L2075.29 1236.2L2079.32 1236.2L2077.64 1241.91L2094.44 1244.93L2084.7 1249.3L2077.3 1246.95L2077.3 1248.96L2069.24 1253.33L2065.54 1255.68L2061.51 1253.33L2056.13 1255.35L2056.13 1299.08L2052.1 1299.08L2048.07 1299.08L2048.07 1255.35L2042.69 1253.33L2038.66 1255.68L2034.96 1253.33L2026.9 1248.96L2026.9 1246.95L2019.51 1249.3L2009.76 1244.93L2026.56 1241.91L2024.88 1236.2L2028.92 1236.2L2026.56 1230.72L2020.85 1230.72L2017.49 1228.47L2012.79 1226.11L2019.84 1226.11L2022.87 1223.76L2019.51 1222.42L2011.78 1219.06L2016.15 1215.03L2018.5 1215.03L2023.2 1218.05L2025.22 1215.03C2028.36 1215.03 2029.59 1214.47 2028.92 1213.35C2028.24 1212.23 2028.24 1210.99 2028.92 1209.65L2032.95 1214.02L2035.97 1212.67C2037.32 1210.88 2037.09 1209.87 2035.3 1209.65C2033.51 1209.43 2031.38 1208.64 2028.92 1207.3L2025.56 1208.64C2021.3 1207.07 2018.84 1206.18 2018.16 1205.95C2017.49 1205.73 2016.04 1205.17 2013.8 1204.27L2019.84 1201.59L2019.84 1197.55L2025.22 1193.86L2021.52 1190.5L2026.23 1191.84L2028.92 1190.5L2032.28 1188.14L2026.9 1185.79L2025.56 1182.1L2028.92 1182.1L2030.6 1180.08L2033.96 1180.08L2035.97 1176.72L2031.94 1175.04L2027.24 1171.34L2024.55 1171.34L2017.83 1167.65L2019.17 1165.63L2017.49 1164.29L2024.55 1166.97C2027.01 1166.53 2028.47 1166.3 2028.92 1166.3C2029.59 1166.3 2031.27 1165.97 2032.28 1166.3C2032.95 1166.53 2034.29 1167.2 2036.31 1168.32L2034.63 1164.29L2033.96 1162.27L2028.92 1158.57L2033.96 1158.57L2036.64 1158.57C2035.3 1156.56 2034.18 1155.33 2033.28 1154.88C2031.94 1154.21 2031.94 1151.52 2028.92 1150.85C2026.9 1150.4 2025 1149.39 2023.2 1147.82C2022.31 1145.36 2021.52 1143.79 2020.85 1143.12C2020.18 1142.45 2022.87 1142.89 2028.92 1144.46L2027.24 1140.43L2032.28 1142.78L2034.63 1144.13L2040.34 1146.81C2041.46 1146.14 2041.46 1145.36 2040.34 1144.46C2039.22 1143.57 2037.88 1142.22 2036.31 1140.43L2033.96 1137.74C2034.4 1137.07 2034.29 1136.51 2033.62 1136.06C2032.95 1135.61 2030.71 1134.61 2026.9 1133.04L2030.26 1133.04L2033.96 1133.04L2034.29 1128.33L2036.31 1128.33L2034.29 1121.28C2034.74 1121.05 2035.52 1121.05 2036.64 1121.28C2038.32 1121.61 2042.36 1122.99 2042.36 1121.13C2042.36 1119.88 2042.02 1118.7 2041.35 1117.58L2037.99 1117.58L2038.66 1114.89L2040.34 1114.89C2041.24 1114.22 2041.57 1113.55 2041.35 1112.88C2041.01 1111.87 2039 1111.2 2041.01 1111.87C2043.03 1112.54 2044.37 1111.33 2045.05 1111.6C2045.49 1111.78 2046.5 1107.84 2048.07 1099.77L2051.05 1100.33L2052.1 1095.4Z" />
					</g>
					<g id="&lt;Group&gt;">
						<path id="&lt;Path&gt;" class="shp0" d="M744.79 992.64L749.12 1006.54L754.87 1003.56C758.79 1023.72 761.31 1033.57 762.43 1033.12C764.11 1032.45 767.47 1035.48 772.51 1033.8C777.55 1032.12 772.51 1033.8 771.67 1036.32C771.11 1038 771.95 1039.68 774.19 1041.36L778.39 1041.36L780.07 1048.08L771.67 1048.08C769.99 1050.88 769.15 1053.83 769.15 1056.94C769.15 1061.61 779.23 1058.15 783.43 1057.32C786.23 1056.76 788.19 1056.76 789.31 1057.32L784.27 1074.95L789.31 1074.95L790.15 1086.71L799.39 1086.71L807.79 1086.71C798.27 1090.63 792.67 1093.15 790.99 1094.27C789.31 1095.39 789.03 1096.79 790.15 1098.47L784.27 1105.19C780.35 1109.67 776.99 1113.03 774.19 1115.27C771.39 1117.51 771.39 1119.47 774.19 1121.15L788.47 1114.43L794.35 1111.07L806.95 1105.19L802.75 1115.27C817.87 1111.35 824.58 1110.23 822.9 1111.91C821.23 1113.59 819.27 1117.51 817.03 1123.67C812.55 1127.59 807.79 1130.11 802.75 1131.23C795.19 1132.91 795.19 1139.62 791.83 1141.3C789.59 1142.42 786.79 1145.5 783.43 1150.54L790.15 1150.54L802.75 1150.54L790.15 1159.78L788.47 1164.82L784.27 1174.9C789.31 1172.1 792.67 1170.42 794.35 1169.86C796.87 1169.02 801.07 1169.86 802.75 1169.86C803.87 1169.86 807.51 1170.42 813.67 1171.54L831.3 1164.82L827.1 1168.18L830.46 1173.22L813.67 1182.46L806.95 1182.46L795.19 1191.7L785.11 1195.9L790.15 1204.3L798.55 1204.3L802.75 1209.34L811.15 1209.34L807.79 1218.57L794.35 1224.45L802.75 1230.33L809.47 1233.69L821.23 1230.33L811.99 1238.73L825.42 1247.97L825.42 1258.05L840.54 1264.77C834.94 1267.01 831.3 1268.41 829.62 1268.97C827.94 1269.53 821.78 1271.77 811.15 1275.69L802.75 1272.33C796.59 1275.69 791.27 1277.65 786.79 1278.21C782.31 1278.77 781.75 1281.29 785.11 1285.77L792.67 1289.13L802.75 1278.21C804.43 1281.57 804.43 1284.65 802.75 1287.45C801.07 1290.25 804.15 1291.65 811.99 1291.65L817.03 1299.2L828.78 1291.65L834.66 1291.65L845.58 1301.72L826.26 1310.12L817.87 1313.48L825.42 1319.36L843.06 1319.36L831.3 1325.24L822.9 1330.88L808.63 1330.88L802.75 1344.56L812.83 1344.56L808.63 1358.84L850.62 1366.4L826.26 1377.32L807.79 1371.44L807.79 1376.48L787.63 1387.39L778.39 1393.27L768.31 1387.39L754.87 1392.43L754.87 1501.42L744.79 1501.42L734.72 1501.42L734.72 1392.43L721.28 1387.39L711.2 1393.27L701.96 1387.39L681.8 1376.48L681.8 1371.44L663.32 1377.32L638.97 1366.4L680.96 1358.84L676.76 1344.56L686.84 1344.56L680.96 1330.88L666.68 1330.88L658.29 1325.24L646.53 1319.36L664.16 1319.36L671.72 1313.48L663.32 1310.12L644.01 1301.72L654.93 1291.65L660.8 1291.65L672.56 1299.2L677.6 1291.65C685.44 1291.65 688.52 1290.25 686.84 1287.45C685.16 1284.65 685.16 1281.57 686.84 1278.21L696.92 1289.13L704.48 1285.77C707.84 1281.29 707.28 1278.77 702.8 1278.21C698.32 1277.65 693 1275.69 686.84 1272.33L678.44 1275.69C667.8 1271.77 661.64 1269.53 659.97 1268.97C658.29 1268.41 654.65 1267.01 649.05 1264.77L664.16 1258.05L664.16 1247.97L677.6 1238.73L668.36 1230.33L680.12 1233.69L686.84 1230.33L695.24 1224.45L681.8 1218.57L678.44 1209.34L686.84 1209.34L691.04 1204.3L699.44 1204.3L704.48 1195.9L694.4 1191.7L682.64 1182.46L675.92 1182.46L659.13 1173.22L662.48 1168.18L658.29 1164.82L675.92 1171.54C682.08 1170.42 685.72 1169.86 686.84 1169.86C688.52 1169.86 692.72 1169.02 695.24 1169.86C696.92 1170.42 700.28 1172.1 705.32 1174.9L701.12 1164.82L699.44 1159.78L686.84 1150.54L699.44 1150.54L706.16 1150.54C702.8 1145.5 700 1142.42 697.76 1141.3C694.4 1139.62 694.4 1132.91 686.84 1131.23C681.8 1130.11 677.04 1127.59 672.56 1123.67C670.32 1117.51 668.36 1113.59 666.68 1111.91C665 1110.23 671.72 1111.35 686.84 1115.27L682.64 1105.19L695.24 1111.07L701.12 1114.43L715.4 1121.15C718.2 1119.47 718.2 1117.51 715.4 1115.27C712.6 1113.03 709.24 1109.67 705.32 1105.19L699.44 1098.47C700.56 1096.79 700.28 1095.39 698.6 1094.27C696.92 1093.15 691.32 1090.63 681.8 1086.71L690.2 1086.71L699.44 1086.71L700.28 1074.95L705.32 1074.95L700.28 1057.32C701.4 1056.76 703.36 1056.76 706.16 1057.32C710.36 1058.15 720.44 1061.61 720.44 1056.94C720.44 1053.83 719.6 1050.88 717.92 1048.08L709.52 1048.08L711.2 1041.36L715.4 1041.36C717.64 1039.68 718.48 1038 717.92 1036.32C717.08 1033.8 712.04 1032.12 717.08 1033.8C722.12 1035.48 725.48 1032.45 727.16 1033.12C728.28 1033.57 730.8 1023.72 734.72 1003.56L742.17 1004.97L744.79 992.64Z" />
					</g>
					<path id="&lt;Path&gt;" class="shp0" d="M2119.09 1261.56C2119.6 1259.02 2125.69 1210.29 2125.18 1207.75C2124.68 1205.21 2123.69 1140.23 2122.15 1134.14C2121.13 1130.08 2120.11 1123.14 2119.09 1113.32L2100.82 1092L2078.3 1077.68L2035.83 1077.68L2030.81 1083.09L1995.68 1083.47L1995.68 1080.77L2020 1079.61L2022.7 1077.68L1994.13 1069.96L1995.68 1066.49L2028.49 1075.37L2035.44 1073.82L2059.67 1073.82L2039.3 1066.49L2016.14 1044.48L2018.46 1042.17L2041.23 1063.79L2061.69 1070.35L2048.95 1049.11L2052.04 1047.96L2068.26 1072.28L2079.07 1073.44L2065.94 1052.2L2050.11 1042.17L2041.23 1030.97L2021.16 1022.09L2022.76 1020.21L2042.49 1027.46L2044.08 1019.41L2046.58 1019.41L2046.19 1030.49L2052.25 1039.85L2068.86 1049.08L2049.75 1009.07L2033.08 999.33L2035.25 996.51L2047.58 1002.79L2041.74 983.96L2045.85 982.45L2053.42 1007.55L2076.36 1055.38L2087.19 1074.42L2103.63 1087.63L2098.66 1074.86L2086.75 1057.33L2060.78 1008.85L2062.3 982.45L2065.33 982.45L2064.68 1007.33L2083.29 1043.91L2088.05 1035.04L2091.73 995L2094.11 995L2091.51 1034.6L2087.84 1048.45L2094.98 1061.87L2098.44 1034.17L2098.01 1017.51L2100.82 1017.72L2101.9 1033.3L2110.99 1031.14L2111.21 1034.17L2103.85 1035.68L2099.31 1063.39L2110.34 1081.13L2109.26 1064.25L2115.1 1061.22L2116.19 1054.3L2107.1 1039.58L2109.91 1038.71L2117.48 1050.83L2134.58 1030.92L2138.91 993.92L2140.64 993.05L2138.91 1028.76L2159.04 1006.68L2161.42 1007.98L2121.81 1053.86L2119.43 1062.52L2114.45 1067.28L2116.62 1084.6L2113.59 1092.39L2124.63 1106.45L2131.12 1084.6L2146.48 1055.81L2148.43 1027.03L2152.11 1025.08L2151.89 1030.49L2161.42 1021.62L2163.15 1012.1L2190.63 993.7L2191.72 997.16L2168.13 1013.61L2165.96 1023.78L2152.54 1035.47L2151.68 1054.3L2156.44 1050.4L2171.81 1033.95L2190.2 1022.27L2189.55 1024.65L2174.62 1036.12L2161.2 1053.43L2149.73 1061.65L2138.48 1086.11L2131.55 1114.03L2130.25 1126.36L2164.45 1092.39L2171.59 1057.33L2172.89 1044.13L2186.31 1031.79L2187.39 1032.65L2175.92 1044.99L2175.7 1056.89L2186.74 1052.57L2194.75 1051.05L2194.75 1053.43L2187.82 1054.51L2176.57 1060.36L2171.81 1092.82L2133.28 1136.32L2136.96 1202.54L2135.45 1261.56L2119.09 1261.56Z" />
					<path id="&lt;Path&gt;" class="shp0" d="M1272.56 1247.03L1271.34 1199.74L1274.29 1146.67L1243.42 1111.81L1239.61 1085.8L1230.59 1081.11L1225.04 1080.25L1225.04 1078.34L1231.45 1079.55L1240.3 1083.02L1240.13 1073.48L1230.93 1063.6L1231.8 1062.9L1242.55 1072.79L1243.59 1083.37L1249.32 1111.46L1276.72 1138.69L1275.68 1128.81L1270.13 1106.43L1261.11 1086.84L1251.92 1080.25L1241.17 1066.37L1229.2 1057.18L1228.68 1055.27L1243.42 1064.64L1255.73 1077.82L1259.55 1080.94L1258.86 1065.85L1248.1 1056.49L1246.37 1048.33L1227.47 1035.15L1228.33 1032.38L1250.36 1047.12L1251.75 1054.75L1259.38 1061.86L1259.2 1057.53L1262.15 1059.09L1263.71 1082.15L1276.03 1105.22L1281.23 1122.74L1290.07 1111.46L1287.65 1105.22L1289.38 1091.35L1285.39 1087.53L1283.48 1080.59L1251.75 1043.83L1253.65 1042.78L1269.78 1060.47L1268.4 1031.86L1269.78 1032.55L1273.25 1062.21L1286.95 1078.16L1293.02 1068.45L1295.28 1069.15L1287.99 1080.94L1288.86 1086.49L1293.54 1088.92L1292.68 1102.45L1301.52 1088.22L1297.88 1066.02L1291.98 1064.81L1292.16 1062.38L1299.44 1064.12L1300.31 1051.63L1302.56 1051.46L1302.21 1064.81L1304.99 1087.01L1310.71 1076.26L1307.76 1065.16L1305.68 1033.42L1307.59 1033.42L1310.54 1065.5L1314.35 1072.61L1329.27 1043.3L1328.75 1023.36L1331.18 1023.36L1332.39 1044.52L1311.58 1083.37L1302.04 1097.42L1298.05 1107.65L1311.23 1097.07L1319.9 1081.81L1338.29 1043.48L1344.36 1023.36L1347.65 1024.57L1342.97 1039.66L1352.86 1034.63L1354.59 1036.89L1341.24 1044.69L1325.92 1076.76L1339.23 1069.36L1344.09 1061.86L1343.77 1052.98L1345.78 1052.98L1347.05 1059.43L1362.86 1053.62L1364.15 1055.13L1348.06 1062.25L1340.94 1071.22L1328.26 1079.26L1317.74 1096.28L1326.4 1095.35L1339.4 1075.86L1341.87 1076.79L1331.66 1093.8L1348.06 1088.54L1366.31 1071.22L1368.17 1073.07L1349.61 1090.71L1333.28 1096.59L1352.7 1096.59L1358.27 1097.82L1384.56 1090.71L1385.8 1093.49L1362.91 1099.68L1365.07 1101.23L1384.56 1102.16L1384.56 1104.32L1356.41 1104.01L1352.39 1099.68L1318.36 1099.68L1300.31 1111.16L1285.66 1128.24C1284.85 1136.11 1284.03 1141.67 1283.21 1144.92C1281.98 1149.8 1281.19 1201.88 1280.78 1203.91C1280.38 1205.94 1285.26 1245 1285.66 1247.03L1272.56 1247.03Z" />
					<path id="&lt;Path&gt;" class="shp0" d="M563.74 1409.48L561.81 1334.38L566.49 1250.12L517.47 1194.76L511.41 1153.46L497.09 1146.02L488.28 1144.65L488.28 1141.62L498.47 1143.54L512.52 1149.05L512.24 1133.91L497.65 1118.21L499.02 1117.11L516.1 1132.8L517.75 1149.6L526.84 1194.21L570.35 1237.45L568.69 1221.75L559.88 1186.23L545.56 1155.11L530.97 1144.65L513.89 1122.61L494.89 1108.02L494.07 1104.99L517.47 1119.86L537.02 1140.79L543.08 1145.75L541.98 1121.79L524.91 1106.92L522.15 1093.98L492.14 1073.05L493.51 1068.64L528.49 1092.05L530.69 1104.16L542.81 1115.45L542.53 1108.57L547.21 1111.05L549.69 1147.67L569.24 1184.3L577.51 1212.11L591.55 1194.21L587.7 1184.3L590.45 1162.27L584.12 1156.21L581.09 1145.2L530.69 1086.82L533.72 1085.16L559.33 1113.25L557.13 1067.81L559.33 1068.92L564.84 1116.01L586.59 1141.34L596.23 1125.92L599.81 1127.02L588.25 1145.75L589.62 1154.56L597.06 1158.41L595.68 1179.89L609.73 1157.31L603.94 1122.06L594.58 1120.14L594.86 1116.28L606.42 1119.03L607.8 1099.21L611.38 1098.93L610.83 1120.14L615.23 1155.39L624.32 1138.31L619.64 1120.69L616.33 1070.29L619.36 1070.29L624.05 1121.24L630.1 1132.53L653.79 1085.99L652.96 1054.32L656.82 1054.32L658.74 1087.92L625.7 1149.6L610.55 1171.91L604.22 1188.16L625.15 1171.36L638.92 1147.12L668.11 1086.26L677.75 1054.32L682.98 1056.25L675.54 1080.21L691.24 1072.22L693.99 1075.8L672.79 1088.19L648.46 1139.11L669.6 1127.36L677.32 1115.45L676.81 1101.36L680 1101.36L682.02 1111.59L707.13 1102.38L709.16 1104.77L683.62 1116.06L672.32 1130.31L652.18 1143.08L635.48 1170.1L649.23 1168.63L669.86 1137.68L673.79 1139.15L657.58 1166.17L683.62 1157.82L712.6 1130.31L715.55 1133.26L686.08 1161.26L660.15 1170.59L690.99 1170.59L699.83 1172.56L741.59 1161.26L743.55 1165.68L707.2 1175.51L710.64 1177.96L741.59 1179.43L741.59 1182.87L696.88 1182.38L690.5 1175.51L636.46 1175.51L607.8 1193.73L584.55 1220.86C583.26 1233.35 581.96 1242.17 580.65 1247.34C578.7 1255.09 577.44 1337.78 576.8 1341C576.15 1344.23 583.9 1406.25 584.55 1409.48L563.74 1409.48Z" />
					<path id="&lt;Path&gt;" class="shp0" d="M1574.2 1334.66C1574.57 1332.79 1579.06 1296.91 1578.68 1295.04C1578.31 1293.17 1577.58 1245.32 1576.45 1240.84C1575.7 1237.84 1574.94 1232.74 1574.2 1225.51L1560.74 1209.81L1544.16 1199.26L1512.89 1199.26L1509.19 1203.24L1483.32 1203.53L1483.32 1201.54L1501.23 1200.69L1503.22 1199.26L1482.18 1193.58L1483.32 1191.02L1507.48 1197.56L1512.6 1196.42L1530.44 1196.42L1515.44 1191.02L1498.39 1174.82L1500.09 1173.11L1516.87 1189.03L1531.93 1193.86L1522.55 1178.23L1524.83 1177.37L1536.76 1195.28L1544.72 1196.14L1535.06 1180.5L1523.4 1173.11L1516.87 1164.87L1502.08 1158.33L1503.26 1156.94L1517.79 1162.28L1518.96 1156.36L1520.8 1156.36L1520.51 1164.51L1524.98 1171.4L1537.21 1178.2L1523.13 1148.74L1510.86 1141.57L1512.46 1139.49L1521.54 1144.12L1517.24 1130.25L1520.26 1129.14L1525.84 1147.62L1542.73 1182.84L1550.7 1196.86L1562.81 1206.58L1559.15 1197.18L1550.38 1184.27L1531.26 1148.58L1532.38 1129.14L1534.61 1129.14L1534.13 1147.46L1547.83 1174.39L1551.34 1167.86L1554.05 1138.38L1555.8 1138.38L1553.89 1167.54L1551.18 1177.74L1556.44 1187.62L1558.99 1167.22L1558.67 1154.95L1560.74 1155.11L1561.54 1166.59L1568.23 1164.99L1568.39 1167.22L1562.97 1168.34L1559.63 1188.74L1567.75 1201.8L1566.96 1189.37L1571.26 1187.14L1572.06 1182.04L1565.36 1171.21L1567.44 1170.57L1573.01 1179.49L1585.6 1164.83L1588.79 1137.58L1590.07 1136.94L1588.79 1163.24L1603.61 1146.98L1605.36 1147.94L1576.2 1181.72L1574.45 1188.1L1570.78 1191.6L1572.38 1204.35L1570.14 1210.09L1578.27 1220.45L1583.05 1204.35L1594.37 1183.16L1595.8 1161.96L1598.51 1160.53L1598.35 1164.51L1605.36 1157.98L1606.64 1150.97L1626.88 1137.42L1627.67 1139.97L1610.3 1152.08L1608.71 1159.57L1598.83 1168.18L1598.19 1182.04L1601.7 1179.17L1613.01 1167.06L1626.56 1158.46L1626.08 1160.21L1615.08 1168.66L1605.2 1181.41L1596.76 1187.46L1588.47 1205.47L1583.37 1226.03L1582.42 1235.11L1607.59 1210.09L1612.85 1184.27L1613.81 1174.55L1623.69 1165.47L1624.49 1166.11L1616.04 1175.19L1615.88 1183.96L1624.01 1180.77L1629.91 1179.65L1629.91 1181.41L1624.81 1182.2L1616.52 1186.51L1613.01 1210.41L1584.65 1242.44L1587.36 1291.21L1586.24 1334.66L1574.2 1334.66Z" />
				</g>
			</g>
		</g>
	</g>
</svg>