<svg version="1.2" baseProfile="tiny-ps" xmlns="http://www.w3.org/2000/svg" viewBox="0 0 1200 630" width="1200" height="630">
	<title>offgrid_logo-svg</title>
	<style>
		tspan { white-space:pre }
		.s0 { fill: none } 
		.s1 { fill: #312f2f } 
		.s2 { fill: #6aa975 } 
	</style>
	<g id="Layer_2">
		<g id="Layer">
			<path id="Layer" class="s0" d="m742.89 401.46c2.82 0.56 14.66 1.41 35.53 2.54c7.33 0.28 12.13 0.85 14.1 1.97c1.97 1.13 3.1 2.82 3.1 5.92c0 4.51-2.26 7.61-6.77 9.02c-4.51 1.41-11.84 2.26-22 2.26c-20.59 0-31.02-3.67-31.02-11.28c0-3.67 2.54-7.05 7.05-10.43z" />
			<path id="Layer" class="s0" d="m769.12 310.94c0-0.28 0-0.28 0-0.28h20.3c-2.82 2.82-6.2 4.23-10.43 4.23c-3.95 0-7.33-1.41-9.87-3.95z" />
			<path id="Layer" class="s0" d="m789.42 310.38h-20.3c-2.54-2.82-3.95-6.49-3.95-11.28c0-6.2 1.69-11.56 4.51-16.07c2.82-4.51 7.05-6.77 12.69-6.77c9.02 0 13.54 5.64 13.54 16.64c0 5.64-1.41 10.72-4.51 15.23c-0.56 0.85-1.41 1.69-1.97 2.26z" />
			<path id="Layer" class="s0" d="m1081.84 310.66l30.45 0l-4.79 36.38c-2.82 13.82-8.74 20.59-17.48 20.59c-8.74 0-13.25-6.77-13.25-20.59c0-9.87 1.69-22 5.08-36.38z" />
			<path id="Layer" class="s0" d="m1113.7 305.02l-0.85 5.92l-30.74 0c0.28-1.13 0.28-1.97 0.56-2.82c3.67-15.79 9.87-23.69 18.33-23.69c3.38 0 6.49 1.41 9.02 4.51c2.54 2.82 3.67 6.49 3.67 10.72c0 1.69 0 3.38 0 5.36z" />
			<path id="Layer" class="s0" d="m449.62 310.66h-32.71c0-1.13 0.28-2.26 0.56-3.38c3.38-15.79 9.31-23.69 17.77-23.69c9.59 0 14.38 7.9 14.38 23.69c0 1.13 0 2.26 0 3.38z" />
			<path id="Layer" class="s0" d="m412.68 346.19c0-9.31 1.41-21.15 4.23-35.53h32.71c-0.28 9.87-1.69 21.71-4.51 35.53c-3.1 15.51-9.02 23.12-17.77 23.12c-9.87 0-14.66-7.61-14.66-23.12z" />
			<path id="Layer" class="s1" d="m449.34 310.38h49.07c0.28 1.69 0.28 3.1 0.28 4.79c0 28.48-7.33 50.48-21.71 66.55c-14.66 16.07-31.86 23.97-51.89 23.97c-17.48 0-32.15-6.2-43.99-18.61c-11.84-12.41-17.77-29.61-17.77-51.04c0-9.02 0.85-17.77 2.54-25.66h50.76c-2.82 14.38-4.23 26.22-4.23 35.53c0 15.51 4.79 23.4 14.66 23.4c8.74 0 14.66-7.61 17.77-23.12c2.82-13.82 4.51-25.66 4.51-35.81z" />
			<path id="Layer" class="s1" d="m473.59 267.23c10.15 11.84 15.79 26.51 16.64 43.43h-49.07c0-1.13 0-2.26 0-3.38c0-15.79-4.79-23.69-14.38-23.69c-8.74 0-14.38 7.9-17.77 23.69c0 1.13-0.28 2.26-0.56 3.38h-50.76c3.1-14.66 9.02-27.35 18.05-38.07c13.82-16.64 31.3-25.1 52.17-25.1c19.18 0 34.4 6.77 45.68 19.74z" />
			<path id="Layer" class="s1" d="m598.23 289.79h-31.3l-2.82 20.87h-45.96l2.82-20.87h-20.3l5.36-38.35h20.3c1.97-17.48 5.08-30.17 9.31-37.5c3.95-7.33 10.15-13.25 18.05-17.48c8.18-4.23 18.33-6.49 30.45-6.49c10.72 0 20.59 1.41 29.61 3.95l-5.08 36.09c-6.49-1.13-11.56-1.69-15.23-1.69c-8.18 0-13.82 1.69-16.64 5.36c-2.82 3.67-4.23 9.59-4.51 17.77h31.3l-5.36 38.35v0z" />
			<path id="Layer" class="s1" d="m526.89 310.66h45.96l-12.69 90.8h-45.96l12.69-90.8z" />
			<path id="Layer" class="s1" d="m630.66 310.66h45.96l-12.69 90.8h-45.96l12.69-90.8z" />
			<path id="Layer" class="s1" d="m702.28 289.51h-31.02l-2.82 20.87h-45.96l2.82-20.87h-20.3l5.36-38.35h20.3c1.97-17.48 5.08-30.17 9.31-37.5c3.95-7.33 10.15-13.25 18.05-17.48c8.18-4.23 18.33-6.49 30.45-6.49c10.72 0 20.59 1.41 29.61 3.95l-5.36 36.38c-6.49-1.13-11.56-1.69-15.23-1.69c-8.18 0-13.82 1.69-16.64 5.36c-2.82 3.67-4.23 9.59-4.51 17.77h31.3l-5.36 38.35v-0.28z" />
			<path id="Layer" class="s1" d="m831.15 292.89c0 6.2-1.13 12.13-3.1 17.77h-46.81c0.56-0.85 1.41-1.69 1.97-2.54c3.1-4.51 4.51-9.59 4.51-15.23c0-11-4.51-16.64-13.54-16.64c-5.64 0-9.87 2.26-12.69 6.77c-3.1 4.51-4.51 9.87-4.51 16.07c0 4.79 1.41 8.74 3.95 11.28h-46.81c-1.41-4.23-2.26-9.02-2.26-14.38c0-12.97 4.79-24.53 14.38-34.12c9.59-9.59 25.66-14.38 48.22-14.38c7.05 0 13.54 0.85 19.46 2.26c3.38-27.92 16.36-42.02 38.35-42.02c3.1 0 7.61 0.28 12.69 0.85l-3.1 37.5c-5.08-0.85-8.74-1.13-11.28-1.13c-9.02 0-15.23 4.23-18.61 12.13c12.69 9.31 19.18 21.15 19.18 35.81z" />
			<path id="Layer" fill-rule="evenodd" class="s1" d="m789.42 310.66h47.09c-2.26 5.92-5.36 11.28-9.59 16.36c-8.46 9.87-23.69 14.95-45.96 14.95c-4.51 0-8.46-0.28-11.56-0.56c-4.23-0.56-7.61-0.85-9.31-0.85c-2.82 0-5.36 0.85-7.33 3.1c-1.97 2.26-2.82 4.51-2.82 7.33c0 2.26 0.85 4.23 1.97 5.64c1.13 1.41 2.82 2.26 4.51 2.54c1.69 0.28 9.02 0.56 22.28 1.13c14.38 0.85 23.69 1.41 27.92 1.97c4.23 0.56 9.02 2.54 14.1 5.92c5.08 3.38 9.31 7.9 12.13 13.82c3.1 5.92 4.51 12.69 4.51 20.02c0 14.1-5.08 26.51-15.51 36.94c-10.43 10.43-30.17 15.79-59.22 15.79c-43.71 0-65.7-12.13-65.7-36.38c0-12.69 7.33-22.28 22.28-29.04c-8.18-6.49-12.13-14.38-12.13-23.97c0-16.64 10.15-28.48 30.45-35.53c-7.61-5.08-12.41-11.56-15.23-19.18h46.81c0 0.28 0 0.28 0 0.28c2.54 2.54 5.92 3.95 9.87 3.95c4.23 0 7.61-1.41 10.43-4.23zm-46.25 90.8c-4.79 3.38-7.05 6.77-7.05 10.43c0 7.61 10.43 11.28 31.02 11.28c10.15 0 17.48-0.56 22-2.26c4.51-1.69 6.77-4.51 6.77-9.02c0-3.1-0.85-5.08-3.1-5.92c-2.26-0.85-7.05-1.69-14.1-1.97c-20.87-1.13-32.71-1.97-35.53-2.54z" />
			<path id="Layer" class="s1" d="m862.74 310.66h53.01c-4.23 5.92-7.33 15.79-9.31 29.61l-8.46 61.19h-47.66l12.41-90.8z" />
			<path id="Layer" class="s1" d="m908.7 309.53c-0.28 0.28-0.56 0.56-0.85 1.13h-53.01l8.18-59.22h41.73l-5.08 36.09c8.46-27.07 22-40.61 39.76-40.61c1.41 0 3.38 0.28 5.92 0.85l-5.64 53.58c-4.23-0.28-7.05-0.56-8.46-0.56c-10.43 0-18.05 2.82-22.56 8.74z" />
			<path id="Layer" class="s1" d="m1010.78 251.44l-8.18 59.22h-48.78l8.46-59.22h48.5z" />
			<path id="Layer" class="s1" d="m1012.75 237.91h-48.78l6.2-43.99l48.78 0l-6.2 43.99z" />
			<path id="Layer" class="s1" d="m962.28 310.66h48.78l-12.69 90.8h-48.78l12.69-90.8z" />
			<path id="Layer" class="s1" d="m1112.58 310.94h47.66l-12.69 90.8h-44.55l3.1-22.84c-10.43 18.05-22.56 27.07-37.22 27.07c-11.28 0-21.15-5.36-29.33-16.07c-8.18-10.72-12.13-25.94-12.13-45.96c0-11.56 1.41-22.56 3.95-33.27h50.76c-3.38 14.38-5.08 26.51-5.08 36.38c0 13.82 4.51 20.59 13.25 20.59c8.74 0 14.66-7.05 17.48-20.59l4.79-36.38v0.28z" />
			<path id="Layer" class="s1" d="m1073.38 310.1h-50.76c2.82-11.84 7.33-23.12 13.25-33.56c11.28-20.02 25.66-29.89 43.43-29.89c15.23 0 25.38 7.05 30.74 21.43l9.59-69.93h47.37l-15.51 112.23h-47.66l0.85-5.92c0.28-1.69 0.28-3.38 0.28-5.08c0-4.23-1.13-7.61-3.67-10.72c-2.54-3.1-5.36-4.51-9.02-4.51c-8.46 0-14.66 7.9-18.33 23.69c-0.28 1.13-0.28 1.97-0.56 2.26z" />
		</g>
	</g>
	<g id="Layer_3">
		<path id="Layer" class="s2" d="m143.67 301.92c-14.81 0-26.79-11.97-26.79-26.79c0-14.81 11.97-26.79 26.79-26.79c14.81 0 26.79 11.97 26.79 26.79c0 14.81-11.97 26.79-26.79 26.79z" />
		<path id="Layer" class="s2" d="m220.37 301.92c-14.81 0-26.79-11.97-26.79-26.79c0-14.81 11.97-26.79 26.79-26.79c14.81 0 26.79 11.97 26.79 26.79c0 14.81-11.97 26.79-26.79 26.79z" />
		<path id="Layer" class="s2" d="m143.67 379.46c-14.81 0-26.79-11.97-26.79-26.79c0-14.81 11.97-26.79 26.79-26.79c14.81 0 26.79 11.97 26.79 26.79c0 14.81-11.97 26.79-26.79 26.79z" />
		<path id="Layer" class="s2" d="m220.37 379.46c-14.81 0-26.79-11.97-26.79-26.79c0-14.81 11.97-26.79 26.79-26.79c14.81 0 26.79 11.97 26.79 26.79c0 14.81-11.97 26.79-26.79 26.79z" />
		<path id="Layer" class="s2" d="m286.07 296c-8.42 0-15.23-6.81-15.23-15.23c0-8.42 6.81-15.23 15.23-15.23c8.42 0 15.23 6.81 15.23 15.23c0 8.42-6.81 15.23-15.23 15.23z" />
		<path id="Layer" class="s2" d="m286.07 226.63c-8.42 0-15.23-6.81-15.23-15.23c0-8.42 6.81-15.23 15.23-15.23c8.42 0 15.23 6.81 15.23 15.23c0 8.42-6.81 15.23-15.23 15.23z" />
		<path id="Layer" class="s2" d="m216.98 226.63c-8.42 0-15.23-6.81-15.23-15.23c0-8.42 6.81-15.23 15.23-15.23c8.42 0 15.23 6.81 15.23 15.23c0 8.42-6.81 15.23-15.23 15.23z" />
		<path id="Layer" class="s2" d="m147.33 226.63c-8.42 0-15.23-6.81-15.23-15.23c0-8.42 6.81-15.23 15.23-15.23c8.42 0 15.23 6.81 15.23 15.23c0 8.42-6.81 15.23-15.23 15.23z" />
		<path id="Layer" class="s2" d="m78.53 226.63c-8.42 0-15.23-6.81-15.23-15.23c0-8.42 6.81-15.23 15.23-15.23c8.42 0 15.23 6.81 15.23 15.23c0 8.42-6.81 15.23-15.23 15.23z" />
		<path id="Layer" class="s2" d="m78.81 296c-8.42 0-15.23-6.81-15.23-15.23c0-8.42 6.81-15.23 15.23-15.23c8.42 0 15.23 6.81 15.23 15.23c0 8.42-6.81 15.23-15.23 15.23z" />
		<path id="Layer" class="s2" d="m78.81 364.8c-8.42 0-15.23-6.81-15.23-15.23c0-8.42 6.81-15.23 15.23-15.23c8.42 0 15.23 6.81 15.23 15.23c0 8.42-6.81 15.23-15.23 15.23z" />
		<path id="Layer" class="s2" d="m286.07 364.8c-8.42 0-15.23-6.81-15.23-15.23c0-8.42 6.81-15.23 15.23-15.23c8.42 0 15.23 6.81 15.23 15.23c0 8.42-6.81 15.23-15.23 15.23z" />
		<path id="Layer" class="s2" d="m78.81 433.32c-8.42 0-15.23-6.81-15.23-15.23c0-8.42 6.81-15.23 15.23-15.23c8.42 0 15.23 6.81 15.23 15.23c0 8.42-6.81 15.23-15.23 15.23z" />
		<path id="Layer" class="s2" d="m147.9 433.32c-8.42 0-15.23-6.81-15.23-15.23c0-8.42 6.81-15.23 15.23-15.23c8.42 0 15.23 6.81 15.23 15.23c0 8.42-6.81 15.23-15.23 15.23z" />
		<path id="Layer" class="s2" d="m216.98 433.32c-8.42 0-15.23-6.81-15.23-15.23c0-8.42 6.81-15.23 15.23-15.23c8.42 0 15.23 6.81 15.23 15.23c0 8.42-6.81 15.23-15.23 15.23z" />
		<path id="Layer" class="s2" d="m286.07 433.32c-8.42 0-15.23-6.81-15.23-15.23c0-8.42 6.81-15.23 15.23-15.23c8.42 0 15.23 6.81 15.23 15.23c0 8.42-6.81 15.23-15.23 15.23z" />
		<path id="Layer" class="s2" d="m147.9 464.06c-4.21 0-7.61-3.4-7.61-7.61c0-4.21 3.4-7.61 7.61-7.61c4.21 0 7.61 3.4 7.61 7.61c0 4.21-3.4 7.61-7.61 7.61z" />
		<path id="Layer" class="s2" d="m216.98 464.06c-4.21 0-7.61-3.4-7.61-7.61c0-4.21 3.4-7.61 7.61-7.61c4.21 0 7.61 3.4 7.61 7.61c0 4.21-3.4 7.61-7.61 7.61z" />
		<path id="Layer" class="s2" d="m39.61 357.19c-4.21 0-7.61-3.4-7.61-7.61c0-4.21 3.4-7.61 7.61-7.61c4.21 0 7.61 3.4 7.61 7.61c0 4.21-3.4 7.61-7.61 7.61z" />
		<path id="Layer" class="s2" d="m39.61 287.25c-4.21 0-7.61-3.4-7.61-7.61c0-4.21 3.4-7.61 7.61-7.61c4.21 0 7.61 3.4 7.61 7.61c0 4.21-3.4 7.61-7.61 7.61z" />
		<path id="Layer" class="s2" d="m324.42 287.25c-4.21 0-7.61-3.4-7.61-7.61c0-4.21 3.4-7.61 7.61-7.61c4.21 0 7.61 3.4 7.61 7.61c0 4.21-3.4 7.61-7.61 7.61z" />
		<path id="Layer" class="s2" d="m324.42 357.19c-4.21 0-7.61-3.4-7.61-7.61c0-4.21 3.4-7.61 7.61-7.61c4.21 0 7.61 3.4 7.61 7.61c0 4.21-3.4 7.61-7.61 7.61z" />
		<path id="Layer" class="s2" d="m147.61 181.23c-4.21 0-7.61-3.4-7.61-7.61c0-4.21 3.4-7.61 7.61-7.61c4.21 0 7.61 3.4 7.61 7.61c0 4.21-3.4 7.61-7.61 7.61z" />
		<path id="Layer" class="s2" d="m216.98 181.23c-4.21 0-7.61-3.4-7.61-7.61c0-4.21 3.4-7.61 7.61-7.61c4.21 0 7.61 3.4 7.61 7.61c0 4.21-3.4 7.61-7.61 7.61z" />
	</g>
</svg>